<?xml version="1.0" encoding="iso-8859-1"?>
<!-- Generator: Adobe Illustrator 17.1.0, SVG Export Plug-In . SVG Version: 6.00 Build 0)  -->
<!DOCTYPE svg PUBLIC "-//W3C//DTD SVG 1.1//EN" "http://www.w3.org/Graphics/SVG/1.1/DTD/svg11.dtd">
<svg version="1.1" xmlns="http://www.w3.org/2000/svg" xmlns:xlink="http://www.w3.org/1999/xlink" x="0px" y="0px"
	 viewBox="0 0 500 500" style="enable-background:new 0 0 500 500;" xml:space="preserve">
<g id="BACKGROUND_2">
	<linearGradient id="SVGID_1_" gradientUnits="userSpaceOnUse" x1="250" y1="-1.122407e-08" x2="250" y2="500">
		<stop  offset="0.0123" style="stop-color:#B2DFDC"/>
		<stop  offset="0.6286" style="stop-color:#83C1C5"/>
		<stop  offset="1" style="stop-color:#6CB2BA"/>
	</linearGradient>
	<rect style="fill:url(#SVGID_1_);" width="500" height="500"/>
	<rect y="372" style="fill:#867667;" width="500" height="129"/>
</g>
<g id="OBJECTS">
	<rect y="119" style="opacity:0.3;fill:#867667;" width="119" height="106"/>
	
		<rect x="400" y="216" transform="matrix(0.9955 0.0943 -0.0943 0.9955 23.7939 -38.3029)" style="opacity:0.3;fill:#867667;" width="33.999" height="33"/>
	<rect x="369" y="167" style="opacity:0.3;fill:#867667;" width="34" height="33"/>
	
		<rect x="410" y="138" transform="matrix(0.99 -0.1413 0.1413 0.99 -17.5442 61.8735)" style="opacity:0.3;fill:#867667;" width="33.999" height="33"/>
	<path style="opacity:0.3;fill:#867667;" d="M401,418.358c3.827,4.234,19.56,15.925,18.914,22.109
		c-0.783,7.515-16.494,8.741-22.273,8.795c-11.298,0.107-21.682-12.494-28.161-21.547c-5.976-8.348,0.43-14.081,9.544-16.155
		C389.315,409.219,393.759,410.348,401,418.358z"/>
	<path style="opacity:0.3;fill:#867667;" d="M95.804,401.577c0.506,1.702,34.157,0.584,34.226,2.6
		c0.05,1.479-32.889,40.717-32.889,40.717s-3.968,5.272-13.444,4.101l-31.216-5.542c0,0-6.581-0.554,11.154-11.327
		C78.76,422.938,95.804,401.577,95.804,401.577z"/>
	<path style="opacity:0.3;fill:#867667;" d="M362,425.351c0,2.761,2.039,5.31-4.158,5.649H158.788
		c-17.206,1.126-16.815-0.523-16.815-3.284l24.755-33.393c0-2.761,8.107-1.373,10.868-1.373l153.001-1.381
		c2.762,0,4.919,4.881,10.27,9.768L362,425.351z"/>
	<path style="opacity:0.3;fill:#867667;" d="M361,386c0,1.104-0.92,2-2.056,2H141.056c-1.135,0-2.056-0.896-2.056-2l0,0
		c0-1.104,0.92-2,2.056-2h217.889C360.08,384,361,384.896,361,386L361,386z"/>
	<ellipse style="opacity:0.3;fill:#867667;" cx="87.153" cy="388.893" rx="34.673" ry="6.171"/>
	<ellipse style="opacity:0.3;fill:#867667;" cx="404.153" cy="396.893" rx="34.673" ry="6.171"/>
	<g>
		<path style="fill:none;" d="M420.588,380.496c0.01,0.001,0.021,0.001,0.031,0.002c0.766-4.467,1.437-8.326,2.027-12.936
			c0.152-1.298,0.312-2.69,0.481-4.124c-0.008-0.002-0.016-0.004-0.023-0.005C422.352,368.8,421.458,374.964,420.588,380.496z"/>
		<path style="fill:none;" d="M420.619,380.498c0.329,0.039,0.664,0.066,1.004,0.066c4.768,0,8.633-3.866,8.633-8.634
			c0-4.253-3.079-7.779-7.128-8.493c-0.17,1.434-0.329,2.826-0.481,4.124C422.056,372.171,421.385,376.03,420.619,380.498z"/>
		<path style="fill:#E2DABA;" d="M423.631,359.649c0.116-0.844-0.267,1.802-0.503,3.788c4.049,0.714,7.128,4.239,7.128,8.493
			c0,4.768-3.865,8.634-8.633,8.634c-0.34,0-0.675-0.027-1.004-0.066c-0.419,2.44-0.881,5.239-0.638,3.768
			c0.538,0.071,1.084,0.121,1.642,0.121c6.879,0,12.456-5.577,12.456-12.457C434.079,365.735,429.553,360.612,423.631,359.649z"/>
		<path style="fill:#F7F3E2;" d="M409.815,385.465c-1.285-6.267,2.571-10.285,4.5-15.909c1.928-6.267,0.321-13.017-1.125-19.123
			c-0.088-0.308-0.182-0.623-0.275-0.941l-5.89-0.004l-4.092-0.003l-1.023-0.011c0.096,0.324,0.19,0.645,0.28,0.958
			c1.446,6.107,3.053,12.856,1.125,19.123c-1.929,5.624-5.785,9.642-4.5,15.909c0.964,4.178,2.571,7.713,3.054,11.892
			c0.077,0.659,0.135,1.317,0.182,1.976c1.297,0.016,2.709,0.002,4.259-0.05c0.836-0.028,1.701-0.064,2.616-0.114
			c0,0,1.952-0.02,4.057-0.583c-0.036-0.41-0.065-0.819-0.113-1.229C412.387,393.179,410.779,389.644,409.815,385.465z"/>
		<path style="fill:#F4EED2;" d="M425,349.735c0-1.185-9.88-2.396-22.066-2.396c-11.371,0-20.729,0.66-21.934,1.66h-0.056
			c0,0,0.003,0.147,0.007,0.178c-0.052,0.06-0.085,0.183-0.085,0.245c0,0.08,0.049,0.191,0.138,0.268
			c0.594,4.7,5.478,43.058,7.189,45.949c0.366,0.996,2.432,3.545,13.858,3.685c-0.047-0.659-0.104-1.314-0.182-1.972
			c-0.482-4.178-2.09-7.711-3.054-11.89c-1.285-6.267,2.571-10.099,4.5-15.723c1.803-5.86,0.515-12.74-0.843-17.74
			c0.154,0,0.307,0,0.461,0c3.793,0,7.361-0.278,10.479-0.441c1.378,5.854,2.731,12.143,0.902,18.09
			c-1.929,5.624-5.785,9.596-4.5,15.863c0.964,4.178,2.571,7.69,3.054,11.868c0.048,0.41,0.077,0.808,0.113,1.218
			c0.045-0.012,0.088-0.026,0.133-0.039c1.514-0.421,3.086-1.129,4.056-2.329c0.024-0.023,0.048-0.058,0.071-0.085
			c0.05-0.065,0.104-0.128,0.15-0.197c0.071-0.105,0.141-0.231,0.209-0.368c0.122-0.224,0.221-0.463,0.302-0.715
			c0.512-1.433,0.943-3.711,1.373-6.281c0.477-3.028,0.924-5.647,1.343-8.086c-0.011-0.001-0.021,0-0.031-0.002
			c0.87-5.532,1.764-11.696,2.517-17.064c0.008,0.001,0.016,0.004,0.023,0.005c0.236-1.986,0.5-3.816,0.835-5.956
			C424.593,352.866,425,350,425,350h-0.004C424.996,349,425,349.74,425,349.735z"/>
		<path style="fill:#A57134;" d="M402.855,351.631c-10.076,0-17.38-0.813-20.715-1.645c3.335-0.832,10.639-1.645,20.715-1.645
			c10.074,0,17.378,0.814,20.713,1.645C420.233,350.817,412.931,351.631,402.855,351.631z"/>
		<g style="opacity:0.3;">
			<g>
				<g>
					<defs>
						<path id="SVGID_2_" d="M437.667,280.593c-6-0.333-19.333-0.297-25,0.037c-14,0.667-16.334,17.704-13.667,30.038
							c1.333,5,4.333,8.333,0.667,13c-3,4-9,5.333-12.334,9.333c-4.728,5.438-3.251,12.049-0.685,17.931
							c4.035,0.43,9.832,0.7,16.285,0.7c5.27,0,10.101-0.181,13.896-0.48c-0.846-5.154-2.321-11.172-0.829-15.151
							c1.667-4,6-4.333,8.333-7.667c2.334-2.667,2.334-7.333,2-10.667c-1-7.333-7-13-4-21
							C424.667,289.667,431.667,284.259,437.667,280.593z"/>
					</defs>
					<clipPath id="SVGID_3_">
						<use xlink:href="#SVGID_2_"  style="overflow:visible;"/>
					</clipPath>
					<rect x="383" y="280" style="clip-path:url(#SVGID_3_);fill:#FFFFFF;" width="55" height="0"/>
					<rect x="383" y="280" style="clip-path:url(#SVGID_3_);fill:#FFFFFF;" width="55" height="1"/>
					<rect x="383" y="281" style="clip-path:url(#SVGID_3_);fill:#FEFEFE;" width="55" height="1"/>
					<rect x="383" y="282" style="clip-path:url(#SVGID_3_);fill:#FDFDFD;" width="55" height="1"/>
					<rect x="383" y="283" style="clip-path:url(#SVGID_3_);fill:#FCFCFC;" width="55" height="1"/>
					<rect x="383" y="284" style="clip-path:url(#SVGID_3_);fill:#FBFBFB;" width="55" height="0"/>
					<rect x="383" y="284" style="clip-path:url(#SVGID_3_);fill:#FAFAFA;" width="55" height="1"/>
					<rect x="383" y="285" style="clip-path:url(#SVGID_3_);fill:#F9F9F9;" width="55" height="1"/>
					<rect x="383" y="286" style="clip-path:url(#SVGID_3_);fill:#F8F8F8;" width="55" height="1"/>
					<rect x="383" y="287" style="clip-path:url(#SVGID_3_);fill:#F7F7F7;" width="55" height="1"/>
					<rect x="383" y="288" style="clip-path:url(#SVGID_3_);fill:#F6F6F6;" width="55" height="1"/>
					<rect x="383" y="289" style="clip-path:url(#SVGID_3_);fill:#F5F5F5;" width="55" height="0"/>
					<rect x="383" y="289" style="clip-path:url(#SVGID_3_);fill:#F4F4F5;" width="55" height="1"/>
					<rect x="383" y="290" style="clip-path:url(#SVGID_3_);fill:#F3F3F4;" width="55" height="1"/>
					<rect x="383" y="291" style="clip-path:url(#SVGID_3_);fill:#F2F2F3;" width="55" height="1"/>
					<rect x="383" y="292" style="clip-path:url(#SVGID_3_);fill:#F1F1F2;" width="55" height="1"/>
					<rect x="383" y="293" style="clip-path:url(#SVGID_3_);fill:#F0F0F1;" width="55" height="0"/>
					<rect x="383" y="293" style="clip-path:url(#SVGID_3_);fill:#EFEFF0;" width="55" height="1"/>
					<rect x="383" y="294" style="clip-path:url(#SVGID_3_);fill:#EEEEEF;" width="55" height="1"/>
					<rect x="383" y="295" style="clip-path:url(#SVGID_3_);fill:#EDEDEE;" width="55" height="1"/>
					<rect x="383" y="296" style="clip-path:url(#SVGID_3_);fill:#ECECED;" width="55" height="1"/>
					<rect x="383" y="297" style="clip-path:url(#SVGID_3_);fill:#EBEBEC;" width="55" height="1"/>
					<rect x="383" y="298" style="clip-path:url(#SVGID_3_);fill:#EAEAEB;" width="55" height="0"/>
					<rect x="383" y="298" style="clip-path:url(#SVGID_3_);fill:#E9EAEA;" width="55" height="1"/>
					<rect x="383" y="299" style="clip-path:url(#SVGID_3_);fill:#E8E9E9;" width="55" height="1"/>
					<rect x="383" y="300" style="clip-path:url(#SVGID_3_);fill:#E7E8E8;" width="55" height="1"/>
					<rect x="383" y="301" style="clip-path:url(#SVGID_3_);fill:#E6E7E7;" width="55" height="1"/>
					<rect x="383" y="302" style="clip-path:url(#SVGID_3_);fill:#E5E6E6;" width="55" height="0"/>
					<rect x="383" y="302" style="clip-path:url(#SVGID_3_);fill:#E4E5E5;" width="55" height="1"/>
					<rect x="383" y="303" style="clip-path:url(#SVGID_3_);fill:#E3E4E4;" width="55" height="1"/>
					<rect x="383" y="304" style="clip-path:url(#SVGID_3_);fill:#E2E3E3;" width="55" height="1"/>
					<rect x="383" y="305" style="clip-path:url(#SVGID_3_);fill:#E1E2E2;" width="55" height="1"/>
					<rect x="383" y="306" style="clip-path:url(#SVGID_3_);fill:#E0E1E1;" width="55" height="1"/>
					<rect x="383" y="307" style="clip-path:url(#SVGID_3_);fill:#DFE0E0;" width="55" height="0"/>
					<rect x="383" y="307" style="clip-path:url(#SVGID_3_);fill:#DEDFE0;" width="55" height="1"/>
					<rect x="383" y="308" style="clip-path:url(#SVGID_3_);fill:#DDDEDF;" width="55" height="1"/>
					<rect x="383" y="309" style="clip-path:url(#SVGID_3_);fill:#DCDDDE;" width="55" height="1"/>
					<rect x="383" y="310" style="clip-path:url(#SVGID_3_);fill:#DBDCDD;" width="55" height="1"/>
					<rect x="383" y="311" style="clip-path:url(#SVGID_3_);fill:#DADBDC;" width="55" height="0"/>
					<rect x="383" y="311" style="clip-path:url(#SVGID_3_);fill:#D9DADB;" width="55" height="1"/>
					<rect x="383" y="312" style="clip-path:url(#SVGID_3_);fill:#D8D9DA;" width="55" height="1"/>
					<rect x="383" y="313" style="clip-path:url(#SVGID_3_);fill:#D7D8D9;" width="55" height="1"/>
					<rect x="383" y="314" style="clip-path:url(#SVGID_3_);fill:#D6D7D8;" width="55" height="1"/>
					<rect x="383" y="315" style="clip-path:url(#SVGID_3_);fill:#D5D6D7;" width="55" height="1"/>
					<rect x="383" y="316" style="clip-path:url(#SVGID_3_);fill:#D4D5D6;" width="55" height="0"/>
					<rect x="383" y="316" style="clip-path:url(#SVGID_3_);fill:#D2D4D5;" width="55" height="1"/>
					<rect x="383" y="317" style="clip-path:url(#SVGID_3_);fill:#D1D3D4;" width="55" height="1"/>
					<rect x="383" y="318" style="clip-path:url(#SVGID_3_);fill:#D0D2D3;" width="55" height="1"/>
					<rect x="383" y="319" style="clip-path:url(#SVGID_3_);fill:#CFD1D2;" width="55" height="1"/>
					<rect x="383" y="320" style="clip-path:url(#SVGID_3_);fill:#CED0D1;" width="55" height="1"/>
					<rect x="383" y="321" style="clip-path:url(#SVGID_3_);fill:#CDCFD0;" width="55" height="0"/>
					<rect x="383" y="321" style="clip-path:url(#SVGID_3_);fill:#CCCECF;" width="55" height="1"/>
					<rect x="383" y="322" style="clip-path:url(#SVGID_3_);fill:#CBCDCE;" width="55" height="1"/>
					<rect x="383" y="323" style="clip-path:url(#SVGID_3_);fill:#CACCCD;" width="55" height="1"/>
					<rect x="383" y="324" style="clip-path:url(#SVGID_3_);fill:#C9CBCC;" width="55" height="1"/>
					<rect x="383" y="325" style="clip-path:url(#SVGID_3_);fill:#C8CACC;" width="55" height="0"/>
					<rect x="383" y="325" style="clip-path:url(#SVGID_3_);fill:#C7C9CB;" width="55" height="1"/>
					<rect x="383" y="326" style="clip-path:url(#SVGID_3_);fill:#C6C8CA;" width="55" height="1"/>
					<rect x="383" y="327" style="clip-path:url(#SVGID_3_);fill:#C5C7C9;" width="55" height="1"/>
					<rect x="383" y="328" style="clip-path:url(#SVGID_3_);fill:#C4C6C8;" width="55" height="1"/>
					<rect x="383" y="329" style="clip-path:url(#SVGID_3_);fill:#C3C5C7;" width="55" height="1"/>
					<rect x="383" y="330" style="clip-path:url(#SVGID_3_);fill:#C2C4C6;" width="55" height="0"/>
					<rect x="383" y="330" style="clip-path:url(#SVGID_3_);fill:#C1C3C5;" width="55" height="1"/>
					<rect x="383" y="331" style="clip-path:url(#SVGID_3_);fill:#C0C2C4;" width="55" height="1"/>
					<rect x="383" y="332" style="clip-path:url(#SVGID_3_);fill:#BFC1C3;" width="55" height="1"/>
					<rect x="383" y="333" style="clip-path:url(#SVGID_3_);fill:#BEC0C2;" width="55" height="1"/>
					<rect x="383" y="334" style="clip-path:url(#SVGID_3_);fill:#BDC0C1;" width="55" height="0"/>
					<rect x="383" y="334" style="clip-path:url(#SVGID_3_);fill:#BCBFC0;" width="55" height="1"/>
					<rect x="383" y="335" style="clip-path:url(#SVGID_3_);fill:#BBBEBF;" width="55" height="1"/>
					<rect x="383" y="336" style="clip-path:url(#SVGID_3_);fill:#BABDBE;" width="55" height="1"/>
					<rect x="383" y="337" style="clip-path:url(#SVGID_3_);fill:#B9BCBD;" width="55" height="1"/>
					<rect x="383" y="338" style="clip-path:url(#SVGID_3_);fill:#B8BBBC;" width="55" height="1"/>
					<rect x="383" y="339" style="clip-path:url(#SVGID_3_);fill:#B7BABB;" width="55" height="0"/>
					<rect x="383" y="339" style="clip-path:url(#SVGID_3_);fill:#B6B9BA;" width="55" height="1"/>
					<rect x="383" y="340" style="clip-path:url(#SVGID_3_);fill:#B5B8B9;" width="55" height="1"/>
					<rect x="383" y="341" style="clip-path:url(#SVGID_3_);fill:#B4B7B8;" width="55" height="1"/>
					<rect x="383" y="342" style="clip-path:url(#SVGID_3_);fill:#B3B6B7;" width="55" height="1"/>
					<rect x="383" y="343" style="clip-path:url(#SVGID_3_);fill:#B2B5B7;" width="55" height="0"/>
					<rect x="383" y="343" style="clip-path:url(#SVGID_3_);fill:#B1B4B6;" width="55" height="1"/>
					<rect x="383" y="344" style="clip-path:url(#SVGID_3_);fill:#B0B3B5;" width="55" height="1"/>
					<rect x="383" y="345" style="clip-path:url(#SVGID_3_);fill:#AFB2B4;" width="55" height="1"/>
					<rect x="383" y="346" style="clip-path:url(#SVGID_3_);fill:#AEB1B3;" width="55" height="1"/>
					<rect x="383" y="347" style="clip-path:url(#SVGID_3_);fill:#ADB0B2;" width="55" height="1"/>
					<rect x="383" y="348" style="clip-path:url(#SVGID_3_);fill:#ACAFB1;" width="55" height="0"/>
					<rect x="383" y="348" style="clip-path:url(#SVGID_3_);fill:#ABAEB0;" width="55" height="1"/>
					<rect x="383" y="349" style="clip-path:url(#SVGID_3_);fill:#AAADAF;" width="55" height="1"/>
					<rect x="383" y="350" style="clip-path:url(#SVGID_3_);fill:#A9ACAE;" width="55" height="1"/>
					<rect x="383" y="351" style="clip-path:url(#SVGID_3_);fill:#A8ABAD;" width="55" height="1"/>
					<path style="clip-path:url(#SVGID_3_);fill:#A8ABAD;" d="M382.605,352h55.062H382.605z"/>
				</g>
			</g>
		</g>
	</g>
	<g>
		<g>
			<path style="fill:#BCBCBC;" d="M235.037,348.006c0,0-0.583,28.875-22.458,28.875v4.374h75.246v-4.667
				c0,0-20.706-3.209-20.706-28.582H235.037z"/>
			<linearGradient id="SVGID_4_" gradientUnits="userSpaceOnUse" x1="250.2024" y1="381.2549" x2="250.2024" y2="348.0063">
				<stop  offset="0" style="stop-color:#FFFFFF;stop-opacity:0"/>
				<stop  offset="1" style="stop-color:#A8ABAD"/>
			</linearGradient>
			<path style="opacity:0.3;fill:url(#SVGID_4_);" d="M235.037,348.006c0,0-0.583,28.875-22.458,28.875v4.374h75.246v-4.667
				c0,0-20.706-3.209-20.706-28.582H235.037z"/>
			<rect x="191.619" y="376.612" style="fill:#D4D5D8;" width="117.169" height="8.435"/>
			<path style="fill:#2A2B30;" d="M352.866,198H147.749c-4.833,0-8.749,3.917-8.749,8.749V329h164.418h37.591
				c-0.047,0,20.991,0,20.991,0v-38.568v-23.646v-9v-50.651C362,202.303,357.698,198,352.866,198z"/>
			<path style="fill:#2A2B30;" d="M348.782,328.54"/>
			<path style="fill:#3B3D40;" d="M352.866,320.812c0,4.376,0,7.924,0,7.924H147.54c0,0,0-3.548,0-7.924V213.623
				c0-4.377,3.548-7.925,7.926-7.925h189.476c4.377,0,7.925,3.548,7.925,7.925V320.812z"/>
			<g>
				<g>
					<path style="fill:#FFFFFF;" d="M154.82,316.639c-2.639,0-4.787-2.146-4.787-4.787v-97.239c0-2.639,2.148-4.786,4.787-4.786
						h189.928c2.639,0,4.787,2.146,4.787,4.786v97.239c0,2.641-2.148,4.787-4.787,4.787H154.82z"/>
					<path style="fill:#615D77;" d="M344.748,210.427c2.307,0,4.186,1.877,4.186,4.186v97.239c0,2.308-1.879,4.187-4.186,4.187
						H154.82c-2.308,0-4.186-1.879-4.186-4.187v-97.239c0-2.308,1.878-4.186,4.186-4.186H344.748 M344.748,209.225H154.82
						c-2.975,0-5.388,2.412-5.388,5.388v97.239c0,2.977,2.412,5.388,5.388,5.388h189.928c2.977,0,5.388-2.411,5.388-5.388v-97.239
						C350.136,211.637,347.725,209.225,344.748,209.225L344.748,209.225z"/>
				</g>
				<path style="fill:#3F444C;" d="M344.748,209.225H154.82c-2.975,0-5.388,2.412-5.388,5.388v10.205h200.704v-10.205
					C350.136,211.637,347.725,209.225,344.748,209.225z"/>
				<g>
					<circle style="fill:#F16228;" cx="157.445" cy="217.19" r="3.006"/>
					<circle style="fill:#F6B979;" cx="165.858" cy="217.19" r="3.006"/>
					<circle style="fill:#B0BD46;" cx="174.271" cy="217.19" r="3.004"/>
				</g>
				<rect x="252.995" y="214.485" style="fill:#FFFFFF;" width="89.289" height="5.409"/>
				<g>
					<rect x="183.062" y="234.422" style="fill:#3F444C;" width="28.225" height="2.544"/>
					<g>
						<rect x="183.062" y="289.821" style="fill:#3F444C;" width="36.308" height="2.545"/>
						<rect x="183.062" y="297.251" style="fill:#64647A;" width="31.861" height="2.543"/>
						<rect x="183.062" y="304.68" style="fill:#64647A;" width="31.861" height="2.544"/>
					</g>
					<g>
						<rect x="231.849" y="289.821" style="fill:#3F444C;" width="36.307" height="2.545"/>
						<rect x="231.849" y="297.251" style="fill:#64647A;" width="31.861" height="2.543"/>
						<rect x="231.849" y="304.68" style="fill:#64647A;" width="31.861" height="2.544"/>
					</g>
					<g>
						<rect x="280.633" y="289.821" style="fill:#3F444C;" width="36.307" height="2.545"/>
						<rect x="280.633" y="297.251" style="fill:#64647A;" width="31.86" height="2.543"/>
						<rect x="280.633" y="304.68" style="fill:#64647A;" width="31.86" height="2.544"/>
					</g>
					<rect x="298.576" y="234.422" style="fill:#209CD3;" width="17.93" height="2.544"/>
					<rect x="275.946" y="234.422" style="fill:#209CD3;" width="17.93" height="2.544"/>
					<rect x="253.315" y="234.422" style="fill:#209CD3;" width="17.934" height="2.544"/>
					<g>
						<rect x="183.062" y="246.624" style="fill:#DAE9F2;" width="133.445" height="33.958"/>
						<path style="fill:#8FC3D5;" d="M317.158,281.235H182.411v-35.263h134.746V281.235L317.158,281.235z M183.713,279.929h132.143
							v-32.654H183.713V279.929L183.713,279.929z"/>
					</g>
					<g>
						<circle style="fill:#8FC3D5;" cx="243.42" cy="274.945" r="1.715"/>
						<circle style="fill:#8FC3D5;" cx="249.785" cy="274.945" r="1.716"/>
						<path style="fill:#8FC3D5;" d="M257.864,274.945c0,0.946-0.768,1.714-1.717,1.714c-0.946,0-1.711-0.768-1.711-1.714
							c0-0.947,0.765-1.714,1.711-1.714C257.096,273.231,257.864,273.998,257.864,274.945z"/>
					</g>
				</g>
			</g>
			<path style="fill:#D4D5D8;" d="M147.54,353.548h205.327c4.832,0,8.75-3.917,8.75-8.75v-16.062H138.79v16.062
				C138.79,349.631,142.706,353.548,147.54,353.548z"/>
			<ellipse style="fill:#3B3D40;" cx="250.203" cy="341.299" rx="7.728" ry="3.5"/>
		</g>
		<path style="opacity:0.25;fill:#FFFFFF;" d="M202.333,198.386c-21.976,23.954-42.986,48.861-63.543,73.897v33.769
			c28.957-37.63,60.911-72.734,93.171-107.666H202.333z"/>
		<path style="opacity:0.25;fill:#FFFFFF;" d="M361.616,290.432c-6.934,12.758-13.751,25.586-20.75,38.304h7.664
			c4.375-8.111,8.77-16.225,13.086-24.384V290.432z"/>
		<path style="opacity:0.25;fill:#FFFFFF;" d="M361.616,242.2c-19.849,28.603-39.527,57.244-58.198,86.537h22.824
			c11.222-21.147,22.908-41.815,35.374-61.95V242.2z"/>
		<path style="opacity:0.25;fill:#FFFFFF;" d="M173.269,198.386c-11.76,12.333-23.214,24.971-34.479,37.754v12.185
			c13.508-17.263,27.715-33.915,42.595-49.939H173.269z"/>
	</g>
	<g>
		<polygon style="fill:#A8A8A8;" points="148.665,421.036 149.645,425.546 355.708,426.085 356.712,421.512 		"/>
		<g>
			<path style="fill:#BCBCBC;" d="M356.379,420.408c0.665,0.747,0.375,2.04-1.304,2.029l-204.447-0.102
				c-1.529-0.011-2.357-0.894-1.819-1.599l21.112-29.229c0.323-0.423,1.794-0.507,2.969-0.507h155.23
				c1.263,0,2.084,0.092,2.475,0.53L356.379,420.408z"/>
			<path style="fill:#EDEDED;" d="M294.644,419.857c0.197,0.494-0.287,1.476-1.375,1.468l-11.39-0.078
				c-1.083-0.008-2.236-0.997-2.375-1.488l-1.057-3.539c-0.132-0.462,0.33-1.566,1.356-1.56l10.811,0.059
				c1.032,0.005,2.366,1.122,2.552,1.585L294.644,419.857z"/>
			<path style="fill:#EDEDED;" d="M206.537,419.283c-0.145,0.482-1.282,1.439-2.328,1.432l-10.938-0.075
				c-1.04-0.007-1.483-0.972-1.283-1.453l1.312-3.456c0.188-0.451,1.314-1.53,2.302-1.524l10.404,0.056
				c0.994,0.005,1.59,1.097,1.455,1.55L206.537,419.283z"/>
			<path style="fill:#EDEDED;" d="M182.044,412.577c-0.225,0.43,0.4,0.522-1.517,0.513l-23.353-0.12
				c-1.896-0.01-1.509-0.097-1.191-0.524l2.238-2.951c0.3-0.403,0.26-0.554,2.091-0.546l22.552,0.095
				c1.851,0.008,0.984,0.155,0.772,0.562L182.044,412.577z"/>
			<path style="fill:#EDEDED;" d="M347.71,413.408c0.39,0.449,1.407,0.547-0.66,0.537l-25.172-0.13
				c-2.043-0.01-1.964-0.102-2.245-0.548l-1.947-3.082c-0.267-0.421-0.473-0.577,1.494-0.569l24.242,0.102
				c1.99,0.009,1.225,0.162,1.593,0.586L347.71,413.408z"/>
			<path style="fill:#EDEDED;" d="M189.573,419.172c-0.21,0.479-1.469,1.433-2.505,1.425l-7.21-0.049
				c-1.033-0.007-1.371-0.969-1.12-1.446l1.662-3.444c0.235-0.45,1.459-1.525,2.442-1.519l6.86,0.037
				c0.986,0.005,1.445,1.092,1.248,1.542L189.573,419.172z"/>
			<path style="fill:#EDEDED;" d="M175.136,419.078c-0.264,0.478-1.626,1.427-2.656,1.419l-7.162-0.05
				c-1.026-0.006-1.251-0.964-0.946-1.44l2.039-3.43c0.286-0.448,1.616-1.518,2.593-1.514l6.816,0.037
				c0.981,0.005,1.321,1.087,1.074,1.537L175.136,419.078z"/>
			<path style="fill:#EDEDED;" d="M161.987,418.992c-0.312,0.476-1.769,1.421-2.793,1.414l-7.118-0.048
				c-1.02-0.007-1.141-0.96-0.789-1.436l2.383-3.416c0.332-0.447,1.757-1.513,2.729-1.509l6.777,0.037
				c0.974,0.004,1.209,1.083,0.915,1.531L161.987,418.992z"/>
			<path style="fill:#EDEDED;" d="M198.741,398.09c-0.145,0.332-0.958,0.531-1.817,0.528l-5.975-0.011
				c-0.856-0.001-1.414-0.203-1.242-0.533l1.148-2.387c0.165-0.313,0.91-0.648,1.739-0.646l5.779,0.005
				c0.831,0.001,1.455,0.337,1.316,0.652L198.741,398.09z"/>
			<path style="fill:#EDEDED;" d="M186.705,398.07c-0.183,0.331-1.018,0.529-1.872,0.528l-5.942-0.011
				c-0.852-0.002-1.381-0.202-1.171-0.531l1.411-2.38c0.201-0.314,0.973-0.646,1.796-0.646l5.749,0.006
				c0.827,0,1.415,0.335,1.242,0.649L186.705,398.07z"/>
			<path style="fill:#EDEDED;" d="M221.999,398.129c-0.071,0.333-0.842,0.533-1.71,0.532l-6.039-0.011
				c-0.866-0.001-1.48-0.204-1.381-0.536l0.636-2.4c0.095-0.315,0.789-0.651,1.626-0.65l5.839,0.005
				c0.839,0.002,1.528,0.339,1.462,0.655L221.999,398.129z"/>
			<path style="fill:#EDEDED;" d="M209.834,398.109c-0.11,0.333-0.903,0.532-1.767,0.53l-6.005-0.011
				c-0.86-0.001-1.446-0.203-1.309-0.535l0.904-2.393c0.132-0.315,0.853-0.649,1.685-0.648l5.808,0.005
				c0.835,0.001,1.49,0.337,1.385,0.653L209.834,398.109z"/>
			<path style="fill:#EDEDED;" d="M175.729,398.052c-0.216,0.329-1.072,0.527-1.922,0.525l-5.911-0.011
				c-0.848-0.001-1.35-0.201-1.106-0.53l1.65-2.373c0.232-0.312,1.028-0.645,1.848-0.644l5.721,0.005
				c0.822,0.001,1.38,0.335,1.175,0.648L175.729,398.052z"/>
			<path style="fill:#EDEDED;" d="M339.395,420.149c0.377,0.499,0.232,1.494-0.877,1.485l-7.721-0.053
				c-1.105-0.007-2.665-1.009-2.995-1.508l-2.404-3.585c-0.312-0.468-0.229-1.584,0.819-1.579l7.319,0.039
				c1.053,0.006,2.771,1.135,3.125,1.604L339.395,420.149z"/>
			<path style="fill:#EDEDED;" d="M353.645,420.242c0.437,0.502,0.401,1.5-0.716,1.492l-7.77-0.053
				c-1.112-0.007-2.793-1.014-3.181-1.515l-2.806-3.6c-0.364-0.469-0.393-1.589,0.661-1.583l7.364,0.039
				c1.06,0.005,2.901,1.139,3.31,1.61L353.645,420.242z"/>
			<path style="fill:#EDEDED;" d="M323.951,420.049c0.314,0.497,0.052,1.487-1.051,1.479l-7.667-0.053
				c-1.097-0.007-2.526-1.005-2.796-1.501l-1.974-3.571c-0.253-0.467-0.049-1.578,0.992-1.573l7.272,0.04
				c1.046,0.005,2.631,1.131,2.927,1.598L323.951,420.049z"/>
			<path style="fill:#EDEDED;" d="M309.886,419.957c0.26,0.496-0.111,1.482-1.206,1.474l-7.618-0.052
				c-1.092-0.008-2.404-1.002-2.616-1.496l-1.584-3.558c-0.2-0.463,0.113-1.572,1.148-1.566l7.229,0.039
				c1.038,0.005,2.501,1.126,2.745,1.591L309.886,419.957z"/>
			<path style="fill:#EDEDED;" d="M326.412,402.973c0.282,0.373-0.27,0.658-1.221,0.655l-6.61-0.02
				c-0.946-0.003-1.907-0.29-2.155-0.663l-1.702-2.557c-0.234-0.352,0.324-0.619,1.238-0.618l6.377,0.012
				c0.916,0.002,1.866,0.274,2.133,0.626L326.412,402.973z"/>
			<path style="fill:#EDEDED;" d="M338.679,403.006c0.324,0.375-0.201,0.66-1.155,0.657l-6.646-0.019
				c-0.953-0.003-1.949-0.292-2.239-0.665l-1.993-2.564c-0.274-0.353,0.26-0.622,1.177-0.62l6.412,0.013
				c0.922,0.002,1.905,0.274,2.213,0.628L338.679,403.006z"/>
			<path style="fill:#EDEDED;" d="M313.106,402.936c0.236,0.373-0.345,0.656-1.29,0.653l-6.572-0.019
				c-0.94-0.002-1.863-0.29-2.064-0.66l-1.391-2.549c-0.19-0.351,0.396-0.618,1.304-0.616l6.341,0.013
				c0.911,0.001,1.827,0.271,2.05,0.624L313.106,402.936z"/>
			<path style="fill:#EDEDED;" d="M300.979,402.904c0.194,0.37-0.415,0.653-1.353,0.651l-6.536-0.019
				c-0.935-0.003-1.825-0.289-1.984-0.659L290,400.336c-0.151-0.35,0.457-0.616,1.361-0.614l6.308,0.012
				c0.907,0.002,1.789,0.272,1.973,0.623L300.979,402.904z"/>
			<path style="fill:#EDEDED;" d="M319.548,393.912c0.237,0.314-0.451,0.354-1.322,0.354l-6.051-0.005
				c-0.866-0.001-1.573-0.042-1.781-0.355l-1.294-1.781c-0.199-0.299,0.488-0.125,1.329-0.125h5.872
				c0.844,0,1.534-0.173,1.761,0.127L319.548,393.912z"/>
			<path style="fill:#EDEDED;" d="M330.786,393.92c0.273,0.315-0.402,0.355-1.276,0.354l-6.081-0.005
				c-0.871,0-1.599-0.042-1.842-0.356l-1.529-1.787c-0.231-0.299,0.446-0.127,1.293-0.127h5.9c0.849,0,1.553-0.171,1.813,0.129
				L330.786,393.92z"/>
			<path style="fill:#EDEDED;" d="M307.351,393.904c0.198,0.313-0.504,0.352-1.369,0.352l-6.017-0.004
				c-0.862-0.001-1.547-0.042-1.718-0.355l-1.04-1.97c-0.162-0.297,0.533-0.319,1.37-0.319l5.842,0.001
				c0.839,0,1.513,0.021,1.701,0.319L307.351,393.904z"/>
			<path style="fill:#EDEDED;" d="M296.228,393.896c0.164,0.312-0.552,0.352-1.412,0.351l-5.988-0.004
				c-0.857-0.001-1.523-0.042-1.657-0.354l-0.812-1.769c-0.129-0.297,0.575-0.12,1.407-0.12h5.814c0.835,0,1.495-0.175,1.65,0.123
				L296.228,393.896z"/>
			<path style="fill:#EDEDED;" d="M304.861,398.269c0.198,0.339-0.42,0.543-1.32,0.542l-6.271-0.011
				c-0.898-0.002-1.719-0.208-1.887-0.548l-1.232-2.446c-0.159-0.323,0.348-0.665,1.215-0.664l6.056,0.007
				c0.87,0.001,1.799,0.344,1.988,0.667L304.861,398.269z"/>
			<path style="fill:#EDEDED;" d="M316.501,398.288c0.236,0.341-0.36,0.546-1.266,0.544l-6.304-0.011
				c-0.902-0.003-1.754-0.208-1.959-0.549l-1.501-2.454c-0.195-0.323,0.283-0.666,1.155-0.666l6.088,0.007
				c0.873,0.001,1.837,0.346,2.062,0.669L316.501,398.288z"/>
			<path style="fill:#EDEDED;" d="M292.233,398.248c0.156,0.339-0.486,0.542-1.382,0.541l-6.234-0.012
				c-0.895-0.001-1.683-0.207-1.808-0.545l-0.945-2.44c-0.119-0.321,0.415-0.662,1.278-0.661l6.023,0.005
				c0.865,0.001,1.758,0.344,1.906,0.666L292.233,398.248z"/>
			<path style="fill:#EDEDED;" d="M280.721,398.228c0.118,0.338-0.546,0.542-1.437,0.54l-6.203-0.011
				c-0.889-0.002-1.65-0.208-1.737-0.544l-0.682-2.434c-0.085-0.321,0.478-0.661,1.336-0.659l5.994,0.005
				c0.86,0.001,1.719,0.342,1.83,0.664L280.721,398.228z"/>
			<path style="fill:#EDEDED;" d="M256.839,398.188c0.04,0.336-0.667,0.539-1.55,0.537l-6.137-0.011
				c-0.879-0.001-1.579-0.205-1.59-0.54l-0.143-2.42c-0.01-0.319,0.605-0.657,1.455-0.656l5.931,0.006
				c0.852,0,1.641,0.34,1.679,0.66L256.839,398.188z"/>
			<path style="fill:#EDEDED;" d="M268.228,398.207c0.078,0.337-0.609,0.54-1.496,0.538l-6.168-0.011
				c-0.884-0.001-1.613-0.206-1.66-0.542l-0.399-2.426c-0.045-0.32,0.545-0.659,1.398-0.658l5.96,0.006
				c0.857,0.001,1.679,0.342,1.754,0.662L268.228,398.207z"/>
			<path style="fill:#EDEDED;" d="M244.478,398.167c0.001,0.335-0.729,0.536-1.606,0.535l-6.102-0.011
				c-0.874-0.001-1.544-0.205-1.516-0.539l0.135-2.413c0.027-0.318,0.671-0.655,1.516-0.654l5.898,0.005
				c0.848,0.001,1.601,0.34,1.602,0.659L244.478,398.167z"/>
			<path style="fill:#EDEDED;" d="M233.21,398.148c-0.035,0.335-0.787,0.535-1.659,0.533l-6.069-0.011
				c-0.87-0.001-1.513-0.204-1.449-0.537l0.386-2.407c0.062-0.316,0.73-0.653,1.572-0.652l5.869,0.005
				c0.843,0.001,1.564,0.339,1.531,0.657L233.21,398.148z"/>
			<path style="fill:#EDEDED;" d="M205.329,393.832c-0.119,0.306-0.935,0.345-1.76,0.345l-5.745-0.005
				c-0.825-0.001-1.334-0.04-1.189-0.346l1.022-1.719c0.139-0.292,0.904-0.106,1.704-0.106h5.583c0.803,0,1.347-0.185,1.233,0.109
				L205.329,393.832z"/>
			<path style="fill:#EDEDED;" d="M194.707,393.824c-0.15,0.306-0.978,0.344-1.8,0.343l-5.717-0.005
				c-0.819,0-1.312-0.04-1.134-0.344l1.231-1.714c0.169-0.292,0.941-0.104,1.738-0.104h5.557c0.799,0,1.33-0.185,1.185,0.106
				L194.707,393.824z"/>
			<path style="fill:#EDEDED;" d="M227.705,393.848c-0.05,0.308-0.842,0.347-1.676,0.346l-5.804-0.005
				c-0.833,0-1.379-0.04-1.302-0.347l0.578-1.732c0.074-0.293,0.823-0.109,1.632-0.109h5.64c0.811,0,1.382-0.182,1.334,0.11
				L227.705,393.848z"/>
			<path style="fill:#EDEDED;" d="M216.975,393.84c-0.083,0.307-0.886,0.347-1.717,0.345l-5.775-0.005
				c-0.828-0.001-1.358-0.041-1.248-0.346l0.792-1.725c0.104-0.294,0.862-0.109,1.667-0.109h5.613c0.808,0,1.366-0.184,1.286,0.109
				L216.975,393.84z"/>
			<path style="fill:#EDEDED;" d="M284.158,393.888c0.127,0.311-0.605,0.351-1.46,0.351l-5.955-0.005
				c-0.853-0.001-1.497-0.042-1.595-0.353l-0.563-1.761c-0.093-0.298,0.618-0.12,1.448-0.12h5.782c0.83,0,1.475-0.177,1.594,0.121
				L284.158,393.888z"/>
			<path style="fill:#EDEDED;" d="M261.206,393.871c0.054,0.309-0.702,0.35-1.549,0.349l-5.894-0.004
				c-0.844,0-1.449-0.04-1.475-0.35l-0.097-1.75c-0.025-0.296,0.701-0.115,1.522-0.115h5.724c0.824,0,1.439-0.179,1.489,0.117
				L261.206,393.871z"/>
			<path style="fill:#EDEDED;" d="M273.151,393.88c0.091,0.31-0.651,0.35-1.502,0.349l-5.926-0.004
				c-0.849-0.001-1.475-0.041-1.537-0.352l-0.34-1.954c-0.059-0.296,0.659-0.316,1.485-0.316l5.753,0.002
				c0.827,0,1.458,0.021,1.544,0.316L273.151,393.88z"/>
			<path style="fill:#EDEDED;" d="M250.311,393.864c0.019,0.309-0.747,0.348-1.591,0.348l-5.864-0.005
				c-0.841-0.001-1.427-0.041-1.419-0.35l0.123-1.944c0.008-0.294,0.743-0.314,1.56-0.314l5.696,0.001
				c0.819,0,1.419,0.02,1.438,0.315L250.311,393.864z"/>
			<path style="fill:#EDEDED;" d="M239.471,393.855c-0.014,0.308-0.794,0.348-1.632,0.347l-5.836-0.003
				c-0.836,0-1.404-0.041-1.362-0.349l0.341-1.738c0.04-0.294,0.782-0.111,1.594-0.111h5.669c0.815,0,1.402-0.181,1.389,0.113
				L239.471,393.855z"/>
			<path style="fill:#EDEDED;" d="M202.062,402.635c-0.141,0.362-0.96,0.638-1.858,0.635l-6.247-0.017
				c-0.895-0.003-1.508-0.283-1.337-0.643l1.155-2.481c0.162-0.341,0.963-0.602,1.829-0.6l6.039,0.013
				c0.868,0.002,1.495,0.265,1.361,0.607L202.062,402.635z"/>
			<path style="fill:#EDEDED;" d="M190.527,402.603c-0.178,0.36-1.021,0.635-1.916,0.633l-6.214-0.018
				c-0.891-0.003-1.472-0.282-1.263-0.641l1.411-2.473c0.198-0.341,1.021-0.6,1.883-0.598l6.007,0.012
				c0.864,0.001,1.461,0.264,1.292,0.606L190.527,402.603z"/>
			<path style="fill:#EDEDED;" d="M226.379,402.701c-0.06,0.363-0.829,0.641-1.737,0.639l-6.318-0.018
				c-0.905-0.003-1.585-0.284-1.493-0.647l0.608-2.496c0.086-0.344,0.841-0.605,1.716-0.603l6.105,0.012
				c0.878,0.001,1.566,0.266,1.509,0.611L226.379,402.701z"/>
			<path style="fill:#EDEDED;" d="M214.715,402.669c-0.099,0.363-0.892,0.64-1.795,0.637l-6.284-0.018
				c-0.9-0.002-1.547-0.283-1.418-0.645l0.87-2.488c0.124-0.343,0.901-0.604,1.772-0.602l6.072,0.012
				c0.874,0.002,1.531,0.266,1.438,0.61L214.715,402.669z"/>
			<path style="fill:#EDEDED;" d="M287.823,402.869c0.148,0.369-0.487,0.651-1.422,0.648l-6.497-0.019
				c-0.931-0.002-1.781-0.288-1.897-0.657l-0.799-2.534c-0.109-0.349,0.525-0.613,1.424-0.611l6.273,0.012
				c0.9,0.001,1.748,0.271,1.889,0.62L287.823,402.869z"/>
			<path style="fill:#EDEDED;" d="M262.825,402.801c0.064,0.366-0.628,0.646-1.553,0.644l-6.422-0.019
				c-0.921-0.002-1.702-0.286-1.731-0.652l-0.224-2.518c-0.028-0.346,0.656-0.61,1.545-0.608l6.204,0.013
				c0.892,0.002,1.675,0.269,1.734,0.616L262.825,402.801z"/>
			<path style="fill:#EDEDED;" d="M275.832,402.835c0.108,0.368-0.555,0.65-1.484,0.647l-6.461-0.018
				c-0.926-0.003-1.742-0.287-1.817-0.654l-0.521-2.526c-0.07-0.349,0.589-0.612,1.482-0.611l6.238,0.013
				c0.897,0.001,1.714,0.269,1.815,0.618L275.832,402.835z"/>
			<path style="fill:#EDEDED;" d="M250.967,402.768c0.023,0.367-0.693,0.645-1.612,0.643l-6.389-0.018
				c-0.915-0.003-1.663-0.286-1.653-0.651l0.049-2.51c0.009-0.346,0.717-0.609,1.601-0.607l6.17,0.013
				c0.888,0.002,1.64,0.268,1.661,0.615L250.967,402.768z"/>
			<path style="fill:#EDEDED;" d="M239.173,402.735c-0.016,0.365-0.758,0.643-1.672,0.641l-6.354-0.019
				c-0.911-0.002-1.626-0.284-1.577-0.649l0.317-2.503c0.046-0.345,0.777-0.607,1.657-0.605l6.138,0.012
				c0.883,0.002,1.604,0.268,1.588,0.613L239.173,402.735z"/>
			<path style="fill:#EDEDED;" d="M319.732,407.928c0.272,0.408-0.359,0.666-1.352,0.662l-6.885-0.028
				c-0.986-0.003-1.936-0.267-2.169-0.673l-1.551-2.716c-0.22-0.384,0.421-0.617,1.374-0.614l6.638,0.021
				c0.955,0.003,1.884,0.241,2.14,0.627L319.732,407.928z"/>
			<path style="fill:#EDEDED;" d="M307.021,407.88c0.226,0.405-0.432,0.663-1.416,0.659l-6.848-0.027
				c-0.981-0.004-1.896-0.267-2.083-0.671l-1.243-2.707c-0.177-0.383,0.488-0.616,1.434-0.613l6.604,0.02
				c0.951,0.003,1.846,0.241,2.059,0.626L307.021,407.88z"/>
			<path style="fill:#EDEDED;" d="M203.463,407.483c-0.143,0.395-0.999,0.646-1.938,0.642l-6.533-0.026
				c-0.936-0.003-1.58-0.258-1.404-0.653l1.197-2.637c0.166-0.373,1.023-0.6,1.927-0.597l6.31,0.02
				c0.907,0.002,1.541,0.234,1.408,0.609L203.463,407.483z"/>
			<path style="fill:#EDEDED;" d="M191.4,407.437c-0.184,0.395-1.061,0.644-1.996,0.64l-6.497-0.026
				c-0.931-0.004-1.543-0.259-1.326-0.651l1.474-2.629c0.205-0.372,1.083-0.598,1.983-0.595l6.277,0.019
				c0.902,0.003,1.506,0.234,1.333,0.607L191.4,407.437z"/>
			<path style="fill:#EDEDED;" d="M228.9,407.581c-0.053,0.397-0.861,0.649-1.812,0.646l-6.609-0.026
				c-0.947-0.004-1.656-0.261-1.567-0.658l0.607-2.653c0.083-0.375,0.894-0.604,1.809-0.602l6.381,0.02
				c0.917,0.003,1.615,0.236,1.564,0.613L228.9,407.581z"/>
			<path style="fill:#EDEDED;" d="M216.698,407.535c-0.096,0.396-0.926,0.647-1.873,0.643l-6.572-0.026
				c-0.942-0.003-1.619-0.26-1.489-0.656l0.891-2.645c0.123-0.375,0.956-0.603,1.865-0.6l6.348,0.021
				c0.913,0.002,1.58,0.235,1.489,0.611L216.698,407.535z"/>
			<path style="fill:#EDEDED;" d="M293.238,407.828c0.173,0.405-0.509,0.66-1.487,0.657l-6.807-0.027
				c-0.976-0.004-1.853-0.266-1.991-0.669l-0.913-2.698c-0.13-0.381,0.562-0.614,1.501-0.611l6.566,0.021
				c0.943,0.003,1.804,0.241,1.968,0.624L293.238,407.828z"/>
			<path style="fill:#EDEDED;" d="M267.052,407.727c0.081,0.402-0.653,0.656-1.62,0.652l-6.726-0.027
				c-0.963-0.003-1.772-0.264-1.816-0.664l-0.29-2.679c-0.041-0.38,0.698-0.61,1.628-0.608l6.491,0.021
				c0.932,0.002,1.726,0.238,1.802,0.619L267.052,407.727z"/>
			<path style="fill:#EDEDED;" d="M280.675,407.779c0.13,0.404-0.579,0.659-1.552,0.655l-6.767-0.027
				c-0.97-0.003-1.813-0.265-1.907-0.666l-0.612-2.689c-0.088-0.381,0.627-0.612,1.562-0.609l6.529,0.02
				c0.938,0.003,1.767,0.24,1.89,0.621L280.675,407.779z"/>
			<path style="fill:#EDEDED;" d="M254.637,407.68c0.036,0.4-0.722,0.654-1.685,0.65l-6.686-0.026
				c-0.959-0.003-1.735-0.263-1.737-0.662l0.005-2.671c-0.002-0.378,0.761-0.608,1.688-0.605l6.453,0.02
				c0.929,0.003,1.691,0.238,1.726,0.618L254.637,407.68z"/>
			<path style="fill:#EDEDED;" d="M242.29,407.632c-0.006,0.4-0.789,0.653-1.745,0.649l-6.649-0.027
				c-0.954-0.004-1.697-0.263-1.655-0.66l0.294-2.663c0.04-0.378,0.825-0.605,1.745-0.603l6.419,0.02
				c0.924,0.003,1.655,0.237,1.649,0.615L242.29,407.632z"/>
			<path style="fill:#EDEDED;" d="M315.986,413.232c0.269,0.445-0.527,0.55-1.561,0.545l-7.194-0.037
				c-1.028-0.006-1.891-0.118-2.118-0.562l-1.503-2.953c-0.215-0.42,0.468-0.672,1.46-0.668l6.931,0.03
				c0.995,0.004,1.95,0.264,2.205,0.685L315.986,413.232z"/>
			<path style="fill:#EDEDED;" d="M207.272,412.686c-0.134,0.434-1.058,0.535-2.042,0.53l-6.845-0.036
				c-0.982-0.005-1.637-0.114-1.466-0.545l1.175-2.87c0.162-0.408,1.061-0.654,2.008-0.649l6.607,0.026
				c0.951,0.005,1.614,0.257,1.487,0.667L207.272,412.686z"/>
			<path style="fill:#EDEDED;" d="M194.625,412.623c-0.18,0.433-1.118,0.533-2.096,0.528l-6.806-0.036
				c-0.975-0.004-1.608-0.113-1.392-0.543l1.479-2.86c0.205-0.407,1.128-0.651,2.07-0.648l6.57,0.029
				c0.945,0.003,1.575,0.255,1.405,0.664L194.625,412.623z"/>
			<path style="fill:#EDEDED;" d="M235.12,412.826c-0.032,0.438-0.923,0.538-1.92,0.534l-6.934-0.036
				c-0.994-0.005-1.701-0.115-1.63-0.55l0.5-2.891c0.067-0.411,0.912-0.658,1.872-0.654l6.688,0.028
				c0.962,0.004,1.7,0.258,1.668,0.671L235.12,412.826z"/>
			<path style="fill:#EDEDED;" d="M221.152,412.757c-0.084,0.435-0.991,0.536-1.982,0.531l-6.89-0.036
				c-0.987-0.005-1.669-0.114-1.546-0.548l0.84-2.881c0.115-0.409,0.987-0.656,1.939-0.652l6.647,0.028
				c0.957,0.003,1.656,0.257,1.577,0.668L221.152,412.757z"/>
			<path style="fill:#EDEDED;" d="M302.704,413.165c0.219,0.444-0.594,0.548-1.622,0.543l-7.147-0.037
				c-1.024-0.005-1.86-0.117-2.04-0.56l-1.169-2.943c-0.167-0.418,0.543-0.669,1.529-0.666l6.891,0.029
				c0.99,0.004,1.91,0.264,2.116,0.683L302.704,413.165z"/>
			<path style="fill:#EDEDED;" d="M273.996,413.022c0.11,0.441-0.734,0.544-1.749,0.539l-7.059-0.037
				c-1.011-0.005-1.791-0.116-1.861-0.556l-0.455-2.921c-0.066-0.415,0.701-0.665,1.676-0.661l6.805,0.029
				c0.978,0.003,1.819,0.261,1.924,0.677L273.996,413.022z"/>
			<path style="fill:#EDEDED;" d="M288.305,413.093c0.163,0.444-0.665,0.547-1.686,0.542l-7.103-0.037
				c-1.018-0.005-1.826-0.116-1.95-0.557l-0.81-2.932c-0.118-0.417,0.623-0.668,1.602-0.663l6.849,0.029
				c0.983,0.004,1.863,0.262,2.018,0.68L288.305,413.093z"/>
			<path style="fill:#EDEDED;" d="M260.962,412.956c0.062,0.439-0.799,0.542-1.807,0.538l-7.017-0.037
				c-1.005-0.005-1.762-0.116-1.785-0.554l-0.132-2.911c-0.021-0.414,0.772-0.663,1.741-0.659l6.767,0.029
				c0.972,0.003,1.779,0.26,1.838,0.675L260.962,412.956z"/>
			<path style="fill:#EDEDED;" d="M248.003,412.891c0.015,0.438-0.861,0.54-1.865,0.535l-6.974-0.036
				c-1-0.006-1.732-0.115-1.707-0.552l0.186-2.901c0.023-0.412,0.843-0.66,1.807-0.656l6.727,0.029
				c0.967,0.004,1.739,0.259,1.752,0.673L248.003,412.891z"/>
			<path style="fill:#EDEDED;" d="M342.853,407.815c0.294,0.338,0.965,0.876-0.037,0.873l-18.054-0.072
				c-0.993-0.004-2.619-0.544-2.849-0.88l-1.8-2.634c-0.22-0.318,0.869-0.506,1.825-0.503l17.403,0.053
				c0.965,0.003,0.934,0.195,1.212,0.515L342.853,407.815z"/>
			<path style="fill:#EDEDED;" d="M179.517,407.197c-0.186,0.323-0.804,0.837-1.733,0.834l-16.761-0.067
				c-0.921-0.004-1.201-0.519-0.961-0.841l1.905-2.528c0.228-0.306,1.033-0.487,1.923-0.484l16.197,0.049
				c0.898,0.003,1.08,0.188,0.904,0.496L179.517,407.197z"/>
			<path style="fill:#EDEDED;" d="M334.607,398.319c0.297,0.342-0.265,0.548-1.178,0.547l-12.776-0.023
				c-0.906-0.001-1.786-0.209-2.031-0.55l-1.773-2.461c-0.23-0.324,0.222-0.667,1.098-0.666l12.332,0.012
				c0.882,0,1.899,0.347,2.181,0.672L334.607,398.319z"/>
			<path style="fill:#EDEDED;" d="M184.138,393.817c-0.183,0.304-1.021,0.343-1.839,0.342l-11.439-0.009
				c-0.813,0-1.278-0.04-1.053-0.343l1.551-1.913c0.216-0.289,0.998-0.31,1.79-0.31l11.122,0.002c0.795,0,1.312,0.02,1.138,0.311
				L184.138,393.817z"/>
			<path style="fill:#EDEDED;" d="M179.053,402.573c-0.216,0.359-1.083,0.633-1.972,0.63l-12.427-0.036
				c-0.883-0.003-1.417-0.279-1.15-0.637l1.804-2.462c0.253-0.339,1.108-0.598,1.963-0.596l12.018,0.024
				c0.86,0.001,1.427,0.263,1.223,0.604L179.053,402.573z"/>
			<path style="fill:#EDEDED;" d="M276.927,419.498c0.129,0.49,0.64,1.719-0.427,1.712l-65.555-0.449
				c-1.033-0.007-2.042-1.221-1.907-1.702l0.891-3.585c0.127-0.451,1.499-1.183,2.483-1.177l62.286,0.335
				c1.012,0.006,1.092,0.756,1.21,1.214L276.927,419.498z"/>
		</g>
	</g>
	<g>
		<path style="fill:#BCBCBC;" d="M53.746,438.946l37.932-33.675c0,0,3.136-3.05,6.864-2.795c1.272,0.087,4.932,0.077,6.705,0.193
			c8.022,0.526,20.595-0.605,20.595-0.605c0.08-0.007,0.232,0.124,0.289,0.164c0.23,0.167,0.305,0.214,0.45,0.458
			c0.341,0.573,0.419,1.487,0.395,2.143c-0.018,0.493-0.061,0.995-0.232,1.457c-0.176,0.472-0.448,0.764-0.77,1.133
			c-0.423,0.485-30.872,36.155-30.973,36.272c0,0-2.042,2.711-5.95,2.646c-3.969-0.067-33.431-3.775-33.431-3.775
			S54.21,441.768,53.746,438.946z"/>
		<path style="fill:#D4D5D8;" d="M55.786,435.802l33.925-32.547c0,0,2.812-3.441,6.54-3.186c1.271,0.087,6.255,0.469,8.029,0.585
			c8.022,0.525,20.268,1.095,20.268,1.095s3.563,0.152,1.134,2.885c-3.405,3.831-31.648,37.042-31.648,37.042
			s-2.042,2.711-5.95,2.646c-0.454-0.008-30.428-3.283-31.483-3.456c-0.358-0.059-0.716-0.117-1.074-0.176
			c-0.663-0.109-1.199-0.287-1.537-0.924C53.163,438.205,54.634,436.681,55.786,435.802z"/>
		<path style="fill:#EDEDED;" d="M73.887,440.765c-0.747,0.786-2.177,1.282-3.178,1.1c-0.992-0.181-1.168-0.958-0.408-1.728
			c0.749-0.759,2.137-1.234,3.117-1.069C74.405,439.233,74.623,439.99,73.887,440.765z"/>
		<path style="fill:#3B3D40;" d="M107.95,402.94c-0.194,0.22-0.676,0.376-1.078,0.348c-0.4-0.029-0.565-0.231-0.37-0.451
			c0.195-0.22,0.675-0.375,1.074-0.347C107.976,402.519,108.144,402.719,107.95,402.94z"/>
		<path style="fill:#3B3D40;" d="M88.915,406.953l1.725-1.682c0,0,1.693-1.556,2.162-1.745c0.468-0.189,0.46-0.431,3.509-0.248
			l23.814,1.823c0,0,1.365,0.013,1.662,0.31c0.187,0.187-0.296,0.876-1.095,1.766l-25.852,29.314c0,0-1.574,2.24-3.7,2.576
			c0,0-0.846,0.371-3.19,0.346l-26.721-2.568c0,0-2.682,0.03-1.819-0.957c0.863-0.987,9.427-9.354,9.427-9.354L88.915,406.953z"/>
		<polygon style="opacity:0.25;fill:#FFFFFF;" points="85.418,410.363 81.2,414.477 116.791,411.724 120.267,407.665 		"/>
		<polygon style="opacity:0.25;fill:#FFFFFF;" points="80.193,415.458 78.804,416.814 114.254,414.477 115.477,413.09 		"/>
		<polygon style="opacity:0.25;fill:#FFFFFF;" points="62.911,432.357 61.667,433.592 98.485,432.357 99.981,430.66 		"/>
		<polygon style="opacity:0.25;fill:#FFFFFF;" points="65.218,430.082 102.046,428.319 104.664,425.351 67.9,427.449 		"/>
	</g>
	<g>
		<g>
			<path style="fill:#D4D5D8;" d="M412.91,427.422c-1.794-1.96-3.648-3.864-5.529-5.74c-3.875-3.868-7.854-7.745-12.229-11.049
				c-5.207-3.931-11.446-3.907-17.504-1.853c-2.335,0.792-4.925,1.538-6.788,3.237c-0.406,0.372-0.748,0.815-1.033,1.297
				c2.159,7.564,8.794,13.682,14.356,18.742c3.69,3.473,6.849,4.9,11.56,6.455c7.89,2.491,15.137,0.577,20.959-4.063
				c-0.146-1.89-0.955-3.412-1.253-4.004C414.885,429.323,413.746,428.333,412.91,427.422z"/>
		</g>
		<g>
			<path style="fill:#BCBCBC;" d="M395.742,438.512c-4.711-1.555-7.869-2.982-11.56-6.455c-5.562-5.06-12.197-11.177-14.356-18.742
				c-0.576,0.97-0.908,2.106-0.974,3.201c-0.105,1.81,0.787,3.85,1.899,5.704c0.811,1.355,1.741,2.611,2.482,3.608
				c1.068,1.435,2.181,2.837,3.337,4.201c6.485,7.651,16.73,17.518,27.776,14.896c10.745-2.551,12.613-7.102,12.355-10.476
				C410.879,439.089,403.632,441.002,395.742,438.512z"/>
		</g>
		<g>
			<path style="fill:#BCBCBC;" d="M381.931,410.08c0.205,0.228,0.453,0.432,0.557,0.535c0.078,0.077,1.463,1.309,1.56,0.912
				c0.199-0.822-0.774-1.878-1.461-2.189c-0.183-0.083-0.548-0.256-0.749-0.149C381.445,409.397,381.646,409.762,381.931,410.08z"/>
		</g>
		<g>
			<defs>
				<path id="SVGID_5_" d="M412.91,427.422c-1.794-1.96-3.648-3.864-5.529-5.74c-3.875-3.868-7.854-7.745-12.229-11.049
					c-5.207-3.931-11.446-3.907-17.504-1.853c-2.335,0.792-4.925,1.538-6.788,3.237c-0.406,0.372-0.748,0.815-1.033,1.297
					c2.159,7.564,8.794,13.682,14.356,18.742c3.69,3.473,6.849,4.9,11.56,6.455c7.89,2.491,15.137,0.577,20.959-4.063
					c-0.146-1.89-0.955-3.412-1.253-4.004C414.885,429.323,413.746,428.333,412.91,427.422z"/>
			</defs>
			<clipPath id="SVGID_6_">
				<use xlink:href="#SVGID_5_"  style="overflow:visible;"/>
			</clipPath>
			<g style="clip-path:url(#SVGID_6_);">
				<path style="fill:#BCBCBC;" d="M372.816,423.692c0,0,0.328-0.546,0.902-1.502c0.281-0.481,0.773-0.967,1.265-1.586
					c0.517-0.633,1.195-1.154,1.899-1.809c0.178-0.159,0.36-0.32,0.546-0.485c0.209-0.142,0.422-0.288,0.639-0.435
					c0.435-0.296,0.885-0.602,1.348-0.916c0.451-0.344,0.98-0.556,1.493-0.836c0.52-0.267,1.053-0.538,1.602-0.793
					c0.569-0.207,1.148-0.418,1.735-0.631c0.294-0.107,0.589-0.214,0.887-0.322c0.302-0.09,0.613-0.152,0.922-0.23
					c0.619-0.148,1.243-0.298,1.87-0.448c0.633-0.116,1.276-0.186,1.916-0.28c1.277-0.222,2.577-0.174,3.846-0.243
					c0.636-0.007,1.266,0.061,1.887,0.095c0.61,0.044,1.255,0.065,1.838,0.167c0.589,0.081,1.172,0.153,1.749,0.295
					c0.576,0.117,1.136,0.243,1.665,0.413c1.072,0.287,2.056,0.676,2.938,1.074c0.434,0.22,0.853,0.42,1.241,0.629
					c0.366,0.25,0.713,0.486,1.039,0.708c0.655,0.435,1.111,0.967,1.54,1.323c0.373,0.421,0.62,0.791,0.808,1.022
					c0.181,0.237,0.277,0.363,0.277,0.363s-0.444-0.468-1.22-1.245c-0.457-0.314-0.938-0.788-1.612-1.153
					c-0.333-0.186-0.688-0.384-1.06-0.594c-0.393-0.17-0.806-0.349-1.236-0.536c-0.873-0.338-1.842-0.663-2.896-0.885
					c-0.521-0.137-1.064-0.228-1.619-0.31c-0.547-0.098-1.128-0.171-1.724-0.231c-1.162-0.125-2.386-0.126-3.613-0.169
					c-1.23,0.079-2.489,0.043-3.724,0.269c-0.62,0.086-1.244,0.147-1.858,0.253c-0.607,0.14-1.212,0.279-1.811,0.417
					c-0.3,0.072-0.601,0.132-0.895,0.212l-0.863,0.288c-0.572,0.19-1.139,0.378-1.695,0.564c-0.533,0.242-1.059,0.479-1.572,0.712
					c-0.508,0.242-1.043,0.424-1.48,0.726c-0.458,0.275-0.903,0.544-1.334,0.803c-0.217,0.13-0.43,0.258-0.639,0.383
					c-0.194,0.154-0.385,0.306-0.571,0.455c-0.373,0.297-0.73,0.583-1.07,0.854c-0.352,0.273-0.673,0.502-0.926,0.786
					c-0.522,0.552-1.047,0.98-1.37,1.437C373.203,423.185,372.816,423.692,372.816,423.692z"/>
			</g>
		</g>
	</g>
	<g>
		<g>
			<rect y="117" style="fill:#F4853F;" width="117" height="25"/>
		</g>
		<g>
			<rect y="142" style="fill:#FFFFFD;" width="117" height="81"/>
		</g>
		<g style="opacity:0.8;">
			<g>
				<rect x="37" y="164" style="fill:#A7D8D9;" width="9" height="8"/>
			</g>
			<g>
				<rect x="52" y="164" style="fill:#A7D8D9;" width="9" height="8"/>
			</g>
			<g>
				<rect x="37" y="150" style="fill:#A7D8D9;" width="9" height="8"/>
			</g>
			<g>
				<rect x="52" y="150" style="fill:#A7D8D9;" width="9" height="8"/>
			</g>
			<g>
				<rect x="83" y="150" style="fill:#A7D8D9;" width="9" height="8"/>
			</g>
			<g>
				<rect x="6" y="164" style="fill:#A7D8D9;" width="9" height="8"/>
			</g>
			<g>
				<rect x="22" y="164" style="fill:#A7D8D9;" width="8" height="8"/>
			</g>
			<g>
				<rect x="83" y="164" style="fill:#A7D8D9;" width="9" height="8"/>
			</g>
			<g>
				<rect x="37" y="178" style="fill:#A7D8D9;" width="9" height="8"/>
			</g>
			<g>
				<rect x="52" y="178" style="fill:#A7D8D9;" width="9" height="8"/>
			</g>
			<g>
				<rect x="6" y="178" style="fill:#A7D8D9;" width="9" height="8"/>
			</g>
			<g>
				<rect x="22" y="178" style="fill:#A7D8D9;" width="8" height="8"/>
			</g>
			<g>
				<rect x="83" y="178" style="fill:#A7D8D9;" width="9" height="8"/>
			</g>
			<g>
				<rect x="37" y="192" style="fill:#A7D8D9;" width="9" height="8"/>
			</g>
			<g>
				<rect x="52" y="192" style="fill:#A7D8D9;" width="9" height="8"/>
			</g>
			<g>
				<rect x="6" y="192" style="fill:#A7D8D9;" width="9" height="8"/>
			</g>
			<g>
				<rect x="22" y="192" style="fill:#A7D8D9;" width="8" height="8"/>
			</g>
			<g>
				<rect x="83" y="192" style="fill:#A7D8D9;" width="9" height="8"/>
			</g>
			<g>
				<rect x="98" y="150" style="fill:#A7D8D9;" width="9" height="8"/>
			</g>
			<g>
				<rect x="98" y="164" style="fill:#A7D8D9;" width="9" height="8"/>
			</g>
			<g>
				<rect x="98" y="178" style="fill:#A7D8D9;" width="9" height="8"/>
			</g>
			<g>
				<rect x="98" y="192" style="fill:#A7D8D9;" width="9" height="8"/>
			</g>
			<g>
				<rect x="37" y="206" style="fill:#A7D8D9;" width="9" height="8"/>
			</g>
			<g>
				<rect x="52" y="206" style="fill:#A7D8D9;" width="9" height="8"/>
			</g>
			<g>
				<rect x="68" y="164" style="fill:#A7D8D9;" width="8" height="8"/>
			</g>
			<g>
				<rect x="68" y="150" style="fill:#A7D8D9;" width="8" height="8"/>
			</g>
			<g>
				<rect x="68" y="178" style="fill:#A7D8D9;" width="8" height="8"/>
			</g>
			<g>
				<rect x="68" y="192" style="fill:#A7D8D9;" width="8" height="8"/>
			</g>
			<g>
				<rect x="68" y="206" style="fill:#A7D8D9;" width="8" height="8"/>
			</g>
			<g>
				<rect x="6" y="206" style="fill:#A7D8D9;" width="9" height="8"/>
			</g>
			<g>
				<rect x="22" y="206" style="fill:#A7D8D9;" width="8" height="8"/>
			</g>
		</g>
	</g>
	<g>
		<path style="fill:#2AA8A8;" d="M112.183,324.872c0,1.477-10.735,14.503-24.685,14.503c-13.95,0-25.832-13.026-25.832-14.503
			c0-1.477,11.881-2.066,25.832-2.066C101.448,322.806,112.183,323.395,112.183,324.872z"/>
		<g>
			<g>
				<path style="fill:#89806E;" d="M85.469,371.621c0,0-0.001,11.405,2.936,11.094c2.232-0.236,3.721-10.774,3.721-10.774
					L85.469,371.621z"/>
			</g>
			<g style="opacity:0.6;">
				<g>
					<polygon style="fill:#A7D8D9;" points="89.147,295.068 88.673,304.928 85.469,371.621 92.126,371.941 95.33,305.248 
						95.804,295.389 					"/>
				</g>
			</g>
			<g>
				
					<rect x="89.886" y="305.591" transform="matrix(0.9989 0.0478 -0.0478 0.9989 16.2911 -3.9328)" style="fill:#A7D8D9;" width="1" height="66.23"/>
			</g>
			<g>
				<path style="fill:#4B53B2;" d="M94.087,323.552c2.668,0.692,3.58-18.268,3.58-18.268s0.308-28.366-2.709-29.863
					c-3.017-1.497-5.811,8.423-7.461,30.691l7.356,0.353L94.087,323.552z"/>
			</g>
			<g>
				<defs>
					<path id="SVGID_7_" d="M94.087,323.552c2.106,1.76,3.58-18.268,3.58-18.268s0.308-28.366-2.709-29.863
						c-3.017-1.497-5.811,8.423-7.461,30.691l7.356,0.353L94.087,323.552z"/>
				</defs>
				<clipPath id="SVGID_8_">
					<use xlink:href="#SVGID_7_"  style="overflow:visible;"/>
				</clipPath>
				<g style="clip-path:url(#SVGID_8_);">
					
						<rect x="86.484" y="303.415" transform="matrix(0.9988 0.048 -0.048 0.9988 14.6944 -4.0805)" style="fill:#343E84;" width="11.646" height="1"/>
				</g>
			</g>
		</g>
		<g>
			<g>
				<path style="fill:#ED9596;" d="M76.353,380.015c1.849-0.253,3.378-0.241,3.091-2.321l-0.505-3.679l-6.925,0.952l0.505,3.678
					c0.286,2.081,1.754,1.656,3.604,1.402L76.353,380.015z"/>
				
					<rect x="71.838" y="372.403" transform="matrix(0.9907 -0.1361 0.1361 0.9907 -50.1199 13.7257)" style="fill:#9A9A9A;" width="6.99" height="2.098"/>
			</g>
			<g>
				
					<rect x="29.087" y="333.61" transform="matrix(-0.1361 -0.9907 0.9907 -0.1361 -254.8155 447.1233)" style="fill:#F5C54E;" width="76.892" height="2.097"/>
				
					<rect x="33.588" y="332.642" transform="matrix(0.1361 0.9907 -0.9907 0.1361 393.1582 217.2037)" style="fill:#F5C54E;" width="76.892" height="2.797"/>
				
					<rect x="68.562" y="295.927" transform="matrix(0.9907 -0.136 0.136 0.9907 -44.8226 12.5718)" style="fill:#282928;" width="2.097" height="76.892"/>
			</g>
			<g>
				<polygon style="fill:#371C11;" points="63.337,281.022 62.657,285.938 64.875,285.632 				"/>
				<polygon style="fill:#FDD6B6;" points="68.186,295.761 64.875,285.632 62.657,285.938 61.26,296.713 				"/>
			</g>
		</g>
		<g>
			<g>
				<path style="fill:#ED9596;" d="M113.971,289.284c-1.815-0.432-3.236-0.997-3.721,1.048l-0.857,3.613l6.802,1.613l0.857-3.613
					c0.484-2.043-1.039-2.178-2.854-2.608L113.971,289.284z"/>
				
					<rect x="109.057" y="294.723" transform="matrix(-0.973 -0.2308 0.2308 -0.973 153.7877 609.5363)" style="fill:#9A9A9A;" width="6.991" height="2.097"/>
			</g>
			<g>
				
					<rect x="67.37" y="333.715" transform="matrix(-0.2308 0.973 -0.973 -0.2308 455.9646 309.0818)" style="fill:#F5C54E;" width="76.892" height="2.098"/>
				
					<rect x="62.949" y="332.317" transform="matrix(0.2308 -0.973 0.973 0.2308 -246.7129 355.3376)" style="fill:#F5C54E;" width="76.892" height="2.796"/>
				
					<rect x="102.727" y="295.833" transform="matrix(-0.9729 -0.2313 0.2313 -0.9729 127.415 683.4971)" style="fill:#F8CE71;" width="2.096" height="76.893"/>
			</g>
			<g>
				<polygon style="fill:#371C11;" points="90.357,386.294 92.767,381.958 90.588,381.442 				"/>
				<polygon style="fill:#FDD6B6;" points="91.16,370.8 90.588,381.442 92.767,381.958 97.961,372.414 				"/>
			</g>
		</g>
		<g>
			<path style="fill:#282928;" d="M85.142,379.544l-0.132-2.093l-4.842-76.739l-2.791,0.176l-2.093,0.132l-2.093,0.132l4.842,76.739
				l0.132,2.094l0.234,3.706c0.132,2.095,1.628,1.779,3.49,1.663l0.232-0.016c1.863-0.116,3.387,0.008,3.254-2.087L85.142,379.544z"
				/>
			<g>
				<polygon style="fill:#371C11;" points="76.416,285.657 75.376,290.508 77.61,290.367 				"/>
				<polygon style="fill:#FDD6B6;" points="80.168,300.712 77.61,290.367 75.376,290.508 73.191,301.152 				"/>
			</g>
		</g>
		<path style="fill:#35B7B3;" d="M61.667,324.995c0.664,8.534,2.884,62.123,9.507,63.191c4.969,0.802,9.789,1.201,14.271,1.338
			l2.674,0.008c4.563-0.128,9.482-0.527,14.557-1.346c6.623-1.068,8.844-54.657,9.507-63.191
			C102.583,330.786,62.724,328.422,61.667,324.995z"/>
		<g>
			<defs>
				<path id="SVGID_9_" d="M61.667,324.995c0.664,8.534,2.884,62.123,9.507,63.191c4.969,0.802,9.789,1.201,14.271,1.338
					l2.674,0.008c4.563-0.128,9.482-0.527,14.557-1.346c6.623-1.068,8.844-54.657,9.507-63.191
					C102.583,330.786,62.724,328.422,61.667,324.995z"/>
			</defs>
			<clipPath id="SVGID_10_">
				<use xlink:href="#SVGID_9_"  style="overflow:visible;"/>
			</clipPath>
			<g style="opacity:0.3;clip-path:url(#SVGID_10_);">
				<g>
					<path style="fill:#EDEDED;" d="M65.866,328.459c-0.043,1.576-1.369,2.819-2.96,2.768c-1.591-0.051-2.833-1.377-2.775-2.953
						c0.058-1.576,1.383-2.807,2.959-2.756C64.666,325.568,65.909,326.882,65.866,328.459z"/>
				</g>
				<g>
					<path style="fill:#EDEDED;" d="M65.444,343.453c-0.043,1.577-1.396,2.818-3.021,2.766c-1.625-0.052-2.895-1.379-2.837-2.955
						c0.059-1.576,1.411-2.806,3.021-2.754C64.217,340.562,65.487,341.876,65.444,343.453z"/>
				</g>
				<g>
					<path style="fill:#EDEDED;" d="M70.307,338.928c-1.608-0.035-2.878-1.347-2.837-2.924c0.041-1.576,1.367-2.821,2.96-2.787
						c1.593,0.034,2.863,1.334,2.837,2.912C73.241,337.706,71.915,338.963,70.307,338.928z"/>
				</g>
				<g>
					<path style="fill:#EDEDED;" d="M55.024,338.435c-1.607-0.069-2.85-1.409-2.774-2.984c0.076-1.576,1.428-2.791,3.02-2.723
						c1.592,0.069,2.835,1.396,2.775,2.972C57.984,337.276,56.632,338.504,55.024,338.435z"/>
				</g>
				<g>
					<path style="fill:#EDEDED;" d="M65.021,358.447c-0.043,1.577-1.423,2.818-3.082,2.764c-1.659-0.054-2.957-1.381-2.898-2.957
						c0.059-1.576,1.438-2.805,3.082-2.752C63.767,355.555,65.064,356.87,65.021,358.447z"/>
				</g>
				<g>
					<path style="fill:#EDEDED;" d="M69.984,353.925c-1.642-0.035-2.94-1.349-2.898-2.925c0.042-1.577,1.395-2.82,3.021-2.785
						c1.627,0.035,2.925,1.336,2.899,2.913C72.979,352.704,71.627,353.96,69.984,353.925z"/>
				</g>
				<g>
					<path style="fill:#EDEDED;" d="M54.379,353.421c-1.642-0.07-2.911-1.411-2.835-2.987c0.075-1.575,1.455-2.79,3.081-2.72
						c1.626,0.07,2.896,1.399,2.836,2.975C57.401,352.265,56.021,353.492,54.379,353.421z"/>
				</g>
				<g>
					<path style="fill:#EDEDED;" d="M64.599,373.441c-0.043,1.576-1.451,2.817-3.144,2.762c-1.692-0.054-3.018-1.383-2.959-2.959
						c0.059-1.576,1.466-2.804,3.144-2.75C63.316,370.548,64.642,371.864,64.599,373.441z"/>
				</g>
				<g>
					<path style="fill:#EDEDED;" d="M69.662,368.921c-1.676-0.036-3.002-1.35-2.96-2.927c0.042-1.577,1.422-2.819,3.083-2.784
						c1.661,0.036,2.986,1.338,2.96,2.915C72.718,367.701,71.338,368.957,69.662,368.921z"/>
				</g>
				<g>
					<path style="fill:#EDEDED;" d="M53.734,368.407c-1.676-0.072-2.973-1.414-2.897-2.99c0.075-1.575,1.482-2.788,3.143-2.717
						c1.66,0.072,2.958,1.401,2.897,2.977C56.817,367.253,55.41,368.479,53.734,368.407z"/>
				</g>
				<g>
					<path style="fill:#EDEDED;" d="M64.176,388.435c-0.044,1.577-1.479,2.816-3.206,2.76c-1.727-0.056-3.079-1.386-3.021-2.961
						c0.059-1.576,1.494-2.803,3.205-2.748C62.867,385.542,64.219,386.858,64.176,388.435z"/>
				</g>
				<g>
					<path style="fill:#EDEDED;" d="M69.339,383.918c-1.71-0.037-3.063-1.352-3.021-2.928c0.042-1.577,1.449-2.819,3.144-2.783
						c1.695,0.037,3.048,1.339,3.022,2.916C72.457,382.699,71.049,383.955,69.339,383.918z"/>
				</g>
				<g>
					<path style="fill:#EDEDED;" d="M53.089,383.393c-1.709-0.073-3.034-1.417-2.958-2.992c0.075-1.575,1.51-2.788,3.204-2.714
						c1.694,0.073,3.019,1.404,2.959,2.98C56.233,382.242,54.798,383.467,53.089,383.393z"/>
				</g>
				<g>
					<path style="fill:#EDEDED;" d="M80.93,328.721c-0.009,1.577-1.307,2.848-2.899,2.831c-1.592-0.017-2.862-1.315-2.837-2.892
						c0.024-1.577,1.323-2.836,2.899-2.819C79.669,325.857,80.939,327.144,80.93,328.721z"/>
				</g>
				<g>
					<path style="fill:#EDEDED;" d="M80.83,343.721c-0.009,1.577-1.335,2.848-2.961,2.831c-1.625-0.018-2.924-1.316-2.899-2.894
						c0.024-1.577,1.35-2.835,2.96-2.818C79.541,340.857,80.839,342.144,80.83,343.721z"/>
				</g>
				<g>
					<path style="fill:#EDEDED;" d="M85.594,339.093c-1.609,0-2.907-1.285-2.899-2.862c0.007-1.578,1.306-2.85,2.899-2.85
						c1.593,0,2.892,1.272,2.899,2.85C88.501,337.808,87.203,339.093,85.594,339.093z"/>
				</g>
				<g>
					<path style="fill:#EDEDED;" d="M80.73,358.721c-0.009,1.577-1.362,2.848-3.022,2.83c-1.659-0.018-2.985-1.317-2.96-2.894
						c0.025-1.577,1.378-2.835,3.022-2.817C79.414,355.856,80.739,357.144,80.73,358.721z"/>
				</g>
				<g>
					<path style="fill:#EDEDED;" d="M85.594,354.093c-1.643,0-2.968-1.285-2.96-2.862c0.007-1.577,1.333-2.85,2.96-2.85
						c1.628,0,2.953,1.272,2.961,2.85C88.562,352.808,87.237,354.093,85.594,354.093z"/>
				</g>
				<g>
					<path style="fill:#EDEDED;" d="M80.63,373.72c-0.009,1.577-1.39,2.848-3.084,2.829c-1.693-0.018-3.046-1.318-3.022-2.895
						c0.025-1.577,1.405-2.835,3.083-2.816S80.64,372.143,80.63,373.72z"/>
				</g>
				<g>
					<path style="fill:#EDEDED;" d="M85.594,369.093c-1.677,0-3.03-1.285-3.022-2.862c0.008-1.577,1.361-2.849,3.022-2.85
						c1.661,0,3.014,1.272,3.022,2.85C88.624,367.808,87.271,369.093,85.594,369.093z"/>
				</g>
				<g>
					<path style="fill:#EDEDED;" d="M80.53,388.72c-0.009,1.577-1.417,2.848-3.145,2.829c-1.727-0.018-3.108-1.319-3.083-2.896
						c0.024-1.577,1.433-2.834,3.145-2.816C79.159,385.855,80.54,387.143,80.53,388.72z"/>
				</g>
				<g>
					<path style="fill:#EDEDED;" d="M85.594,384.093c-1.71,0-3.091-1.285-3.084-2.862c0.008-1.577,1.388-2.85,3.084-2.85
						c1.695,0,3.076,1.272,3.083,2.85C88.686,382.807,87.305,384.093,85.594,384.093z"/>
				</g>
				<g>
					<path style="fill:#EDEDED;" d="M95.995,328.66c0.025,1.577-1.246,2.875-2.837,2.892c-1.592,0.018-2.89-1.253-2.899-2.831
						c-0.01-1.577,1.261-2.864,2.837-2.881C94.672,325.824,95.971,327.082,95.995,328.66z"/>
				</g>
				<g>
					<path style="fill:#EDEDED;" d="M96.218,343.658c0.025,1.577-1.273,2.876-2.899,2.894c-1.625,0.017-2.951-1.253-2.96-2.831
						c-0.009-1.577,1.289-2.864,2.899-2.881C94.868,340.822,96.193,342.081,96.218,343.658z"/>
				</g>
				<g>
					<path style="fill:#EDEDED;" d="M100.882,338.928c-1.608,0.035-2.934-1.222-2.96-2.799c-0.026-1.577,1.244-2.877,2.837-2.912
						s2.918,1.21,2.96,2.787C103.76,337.581,102.49,338.894,100.882,338.928z"/>
				</g>
				<g>
					<path style="fill:#EDEDED;" d="M96.441,358.656c0.024,1.577-1.301,2.876-2.96,2.894c-1.66,0.018-3.013-1.252-3.022-2.83
						c-0.009-1.578,1.316-2.864,2.96-2.882C95.063,355.821,96.416,357.079,96.441,358.656z"/>
				</g>
				<g>
					<path style="fill:#EDEDED;" d="M101.205,353.925c-1.643,0.035-2.996-1.221-3.022-2.798c-0.026-1.577,1.272-2.878,2.899-2.913
						c1.627-0.035,2.98,1.209,3.021,2.785C104.145,352.576,102.847,353.89,101.205,353.925z"/>
				</g>
				<g>
					<path style="fill:#EDEDED;" d="M96.664,373.654c0.024,1.577-1.329,2.877-3.022,2.895c-1.693,0.019-3.074-1.252-3.084-2.829
						c-0.009-1.577,1.344-2.864,3.022-2.882C95.258,370.82,96.639,372.077,96.664,373.654z"/>
				</g>
				<g>
					<path style="fill:#EDEDED;" d="M101.527,368.921c-1.676,0.036-3.057-1.22-3.083-2.796c-0.026-1.577,1.299-2.878,2.96-2.915
						c1.661-0.035,3.041,1.208,3.083,2.784C104.529,367.571,103.203,368.885,101.527,368.921z"/>
				</g>
				<g>
					<path style="fill:#EDEDED;" d="M96.886,388.653c0.025,1.577-1.356,2.878-3.083,2.896c-1.728,0.019-3.136-1.251-3.145-2.829
						c-0.009-1.577,1.371-2.864,3.083-2.883C95.454,385.818,96.862,387.076,96.886,388.653z"/>
				</g>
				<g>
					<path style="fill:#EDEDED;" d="M101.85,383.918c-1.71,0.037-3.118-1.219-3.144-2.795c-0.026-1.577,1.327-2.879,3.022-2.916
						c1.695-0.036,3.103,1.206,3.144,2.783C104.913,382.566,103.56,383.881,101.85,383.918z"/>
				</g>
				<g>
					<path style="fill:#EDEDED;" d="M111.057,328.273c0.059,1.576-1.184,2.902-2.775,2.953c-1.591,0.052-2.917-1.191-2.959-2.768
						c-0.043-1.577,1.2-2.891,2.775-2.941C109.673,325.467,110.998,326.698,111.057,328.273z"/>
				</g>
				<g>
					<path style="fill:#EDEDED;" d="M111.602,343.264c0.059,1.576-1.212,2.903-2.837,2.955c-1.625,0.053-2.978-1.19-3.021-2.766
						c-0.043-1.577,1.227-2.891,2.837-2.943C110.191,340.458,111.543,341.688,111.602,343.264z"/>
				</g>
				<g>
					<path style="fill:#EDEDED;" d="M116.164,338.435c-1.608,0.069-2.961-1.159-3.021-2.735c-0.06-1.576,1.183-2.903,2.775-2.972
						c1.592-0.069,2.944,1.148,3.02,2.723C119.014,337.026,117.771,338.366,116.164,338.435z"/>
				</g>
				<g>
					<path style="fill:#EDEDED;" d="M112.147,358.254c0.059,1.576-1.239,2.904-2.898,2.957c-1.659,0.054-3.039-1.188-3.082-2.764
						c-0.043-1.577,1.254-2.892,2.898-2.945C110.709,355.449,112.089,356.677,112.147,358.254z"/>
				</g>
				<g>
					<path style="fill:#EDEDED;" d="M116.809,353.421c-1.642,0.071-3.021-1.156-3.082-2.732c-0.06-1.576,1.21-2.905,2.836-2.975
						c1.626-0.07,3.006,1.145,3.081,2.72C119.72,352.009,118.451,353.351,116.809,353.421z"/>
				</g>
				<g>
					<path style="fill:#EDEDED;" d="M112.693,373.244c0.059,1.576-1.267,2.904-2.959,2.959c-1.693,0.055-3.101-1.185-3.144-2.762
						c-0.043-1.577,1.282-2.893,2.959-2.947C111.227,370.44,112.634,371.668,112.693,373.244z"/>
				</g>
				<g>
					<path style="fill:#EDEDED;" d="M117.454,368.407c-1.675,0.072-3.082-1.153-3.143-2.729c-0.061-1.576,1.237-2.905,2.897-2.977
						c1.66-0.071,3.067,1.142,3.143,2.717C120.427,366.993,119.13,368.335,117.454,368.407z"/>
				</g>
				<g>
					<path style="fill:#EDEDED;" d="M113.238,388.234c0.059,1.576-1.294,2.906-3.021,2.961c-1.727,0.056-3.162-1.184-3.206-2.76
						c-0.043-1.577,1.31-2.894,3.021-2.949C111.745,385.431,113.18,386.658,113.238,388.234z"/>
				</g>
				<g>
					<path style="fill:#EDEDED;" d="M118.1,383.393c-1.709,0.074-3.145-1.151-3.205-2.727c-0.06-1.576,1.265-2.907,2.959-2.98
						c1.694-0.073,3.128,1.139,3.204,2.714C121.133,381.977,119.809,383.32,118.1,383.393z"/>
				</g>
			</g>
		</g>
	</g>
	<g>
		<defs>
			<rect id="SVGID_11_" width="500" height="500"/>
		</defs>
		<clipPath id="SVGID_12_">
			<use xlink:href="#SVGID_11_"  style="overflow:visible;"/>
		</clipPath>
	</g>
	<g>
		<rect x="367" y="165" style="fill:#FDCE20;" width="34" height="33"/>
		<g>
			<polygon style="opacity:0.5;fill:#D5E2F3;" points="384.969,160.444 383.322,158 381.675,160.444 380.185,158.361 
				380.185,170.645 381.612,168.648 383.261,171.092 384.905,168.648 386.459,170.818 386.459,158.359 			"/>
		</g>
	</g>
	<g>
		
			<rect x="397.692" y="213.951" transform="matrix(0.9961 0.0885 -0.0885 0.9961 22.0154 -35.7902)" style="fill:#FDCE20;" width="34.246" height="33.09"/>
		<g>
			<polygon style="opacity:0.5;fill:#D5E2F3;" points="417.521,209.539 416.099,206.952 414.242,209.248 412.941,207.035 
				411.853,219.305 413.452,217.438 414.877,220.024 416.731,217.728 418.087,220.033 419.192,207.589 			"/>
		</g>
	</g>
	<g>
		
			<rect x="408.527" y="135.926" transform="matrix(0.9887 -0.1497 0.1497 0.9887 -18.0268 65.4296)" style="fill:#FDCE20;" width="34.246" height="33.09"/>
		<g>
			<polygon style="opacity:0.5;fill:#D5E2F3;" points="423.323,131.468 421.328,129.291 420.067,131.96 418.28,130.118 
				420.126,142.297 421.237,140.105 423.233,142.281 424.492,139.611 426.354,141.53 424.485,129.178 			"/>
		</g>
	</g>
	<radialGradient id="SVGID_13_" cx="247" cy="249.5" r="263.7501" gradientUnits="userSpaceOnUse">
		<stop  offset="0" style="stop-color:#FFFFFF;stop-opacity:0"/>
		<stop  offset="0.8899" style="stop-color:#FFFFFF;stop-opacity:0.8899"/>
		<stop  offset="1" style="stop-color:#FFFFFF"/>
	</radialGradient>
	<rect x="-17" y="-14" style="fill:url(#SVGID_13_);" width="528" height="527"/>
</g>
<g id="DESIGNED_BY_FREEPIK">
	<g>
		<defs>
			<rect id="SVGID_14_" width="500" height="500"/>
		</defs>
		<clipPath id="SVGID_15_">
			<use xlink:href="#SVGID_14_"  style="overflow:visible;"/>
		</clipPath>
		<path style="clip-path:url(#SVGID_15_);fill:#C1C1C1;" d="M178.766,483.928v-0.16c-0.219,0.249-0.433,0.452-0.645,0.608
			c-0.212,0.156-0.441,0.275-0.689,0.356c-0.247,0.082-0.517,0.122-0.809,0.122c-0.388,0-0.747-0.082-1.078-0.246
			c-0.33-0.164-0.616-0.399-0.856-0.703c-0.243-0.306-0.426-0.663-0.55-1.075c-0.125-0.412-0.188-0.857-0.188-1.335
			c0-1.014,0.247-1.804,0.743-2.37c0.494-0.565,1.145-0.848,1.953-0.848c0.466,0,0.859,0.081,1.181,0.239
			c0.321,0.161,0.634,0.408,0.938,0.739v-2.392c0-0.333,0.066-0.584,0.198-0.754c0.132-0.171,0.321-0.255,0.567-0.255
			c0.244,0,0.434,0.078,0.566,0.234c0.133,0.156,0.199,0.386,0.199,0.691v7.146c0,0.31-0.072,0.541-0.215,0.695
			c-0.142,0.153-0.326,0.232-0.551,0.232c-0.223,0-0.405-0.08-0.55-0.24C178.838,484.453,178.766,484.225,178.766,483.928
			 M175.577,481.548c0,0.439,0.067,0.813,0.205,1.122c0.136,0.309,0.323,0.541,0.561,0.697c0.237,0.156,0.497,0.235,0.777,0.235
			c0.285,0,0.546-0.075,0.781-0.224c0.235-0.147,0.423-0.376,0.563-0.682c0.141-0.307,0.211-0.691,0.211-1.149
			c0-0.432-0.07-0.803-0.211-1.114c-0.141-0.31-0.33-0.547-0.57-0.712c-0.238-0.163-0.501-0.245-0.785-0.245
			c-0.297,0-0.562,0.084-0.796,0.252c-0.233,0.168-0.415,0.409-0.543,0.724C175.641,480.768,175.577,481.132,175.577,481.548"/>
		<path style="clip-path:url(#SVGID_15_);fill:#C1C1C1;" d="M185.911,481.958h-3.17c0.004,0.368,0.078,0.692,0.223,0.973
			c0.145,0.281,0.337,0.493,0.575,0.636c0.24,0.143,0.504,0.213,0.793,0.213c0.193,0,0.371-0.021,0.531-0.067
			c0.16-0.046,0.316-0.116,0.467-0.214c0.15-0.097,0.288-0.201,0.415-0.311c0.126-0.111,0.29-0.263,0.493-0.452
			c0.082-0.07,0.201-0.107,0.356-0.107c0.166,0,0.3,0.046,0.403,0.137c0.102,0.092,0.154,0.22,0.154,0.386
			c0,0.147-0.058,0.317-0.172,0.514c-0.115,0.195-0.289,0.384-0.52,0.563c-0.232,0.181-0.522,0.329-0.873,0.448
			c-0.35,0.119-0.753,0.179-1.209,0.179c-1.04,0-1.85-0.298-2.427-0.891c-0.578-0.594-0.867-1.399-0.867-2.416
			c0-0.48,0.071-0.924,0.214-1.333c0.143-0.409,0.352-0.761,0.623-1.054c0.273-0.293,0.609-0.517,1.01-0.674
			c0.4-0.156,0.844-0.233,1.33-0.233c0.633,0,1.176,0.133,1.629,0.4c0.453,0.267,0.793,0.612,1.018,1.035
			c0.225,0.424,0.339,0.855,0.339,1.294c0,0.408-0.117,0.672-0.351,0.793C186.664,481.897,186.335,481.958,185.911,481.958
			 M182.741,481.037h2.939c-0.039-0.554-0.19-0.969-0.448-1.243c-0.259-0.275-0.601-0.413-1.023-0.413
			c-0.403,0-0.735,0.14-0.995,0.418C182.954,480.078,182.797,480.491,182.741,481.037"/>
		<path style="clip-path:url(#SVGID_15_);fill:#C1C1C1;" d="M193.295,482.734c0,0.447-0.107,0.831-0.326,1.149
			c-0.217,0.318-0.539,0.561-0.965,0.725c-0.425,0.164-0.942,0.246-1.552,0.246c-0.582,0-1.081-0.09-1.496-0.268
			c-0.415-0.178-0.723-0.401-0.92-0.667c-0.198-0.268-0.297-0.535-0.297-0.806c0-0.178,0.063-0.33,0.19-0.456
			c0.127-0.127,0.287-0.189,0.48-0.189c0.17,0,0.301,0.041,0.392,0.124c0.091,0.083,0.179,0.2,0.261,0.35
			c0.166,0.29,0.365,0.504,0.598,0.647c0.23,0.143,0.547,0.214,0.946,0.214c0.325,0,0.591-0.072,0.799-0.217
			c0.208-0.146,0.312-0.31,0.312-0.496c0-0.285-0.107-0.492-0.324-0.622c-0.215-0.131-0.57-0.256-1.065-0.375
			c-0.558-0.139-1.012-0.285-1.362-0.437c-0.35-0.151-0.631-0.353-0.84-0.602c-0.209-0.25-0.314-0.557-0.314-0.921
			c0-0.324,0.097-0.631,0.291-0.92c0.193-0.288,0.48-0.52,0.857-0.691c0.378-0.173,0.834-0.259,1.368-0.259
			c0.419,0,0.797,0.044,1.131,0.132c0.335,0.086,0.614,0.203,0.837,0.35c0.225,0.146,0.395,0.309,0.511,0.486
			c0.116,0.178,0.175,0.352,0.175,0.523c0,0.185-0.062,0.339-0.187,0.458c-0.124,0.117-0.302,0.178-0.532,0.178
			c-0.166,0-0.307-0.048-0.424-0.145c-0.116-0.094-0.25-0.235-0.4-0.426c-0.123-0.158-0.267-0.285-0.433-0.381
			c-0.167-0.095-0.393-0.142-0.678-0.142c-0.293,0-0.536,0.061-0.729,0.188c-0.194,0.124-0.291,0.279-0.291,0.465
			c0,0.171,0.07,0.311,0.213,0.419c0.143,0.109,0.334,0.199,0.576,0.27c0.242,0.071,0.574,0.157,0.998,0.261
			c0.502,0.123,0.912,0.27,1.23,0.439c0.318,0.17,0.561,0.371,0.726,0.603C193.213,482.174,193.295,482.438,193.295,482.734"/>
		<path style="clip-path:url(#SVGID_15_);fill:#C1C1C1;" d="M194.951,477.512c-0.227,0-0.419-0.069-0.579-0.208
			c-0.16-0.138-0.24-0.334-0.24-0.588c0-0.23,0.082-0.418,0.247-0.567c0.163-0.148,0.355-0.223,0.572-0.223
			c0.209,0,0.396,0.067,0.558,0.202c0.163,0.135,0.243,0.33,0.243,0.588c0,0.249-0.078,0.444-0.237,0.585
			C195.356,477.44,195.168,477.512,194.951,477.512 M195.752,479.185v4.683c0,0.325-0.077,0.571-0.232,0.737
			c-0.154,0.166-0.351,0.249-0.587,0.249c-0.238,0-0.432-0.085-0.579-0.256c-0.149-0.17-0.223-0.413-0.223-0.73v-4.636
			c0-0.32,0.073-0.561,0.223-0.725c0.148-0.162,0.341-0.243,0.579-0.243c0.236,0,0.433,0.081,0.587,0.243
			C195.675,478.671,195.752,478.897,195.752,479.185"/>
		<path style="clip-path:url(#SVGID_15_);fill:#C1C1C1;" d="M202.852,479.452v4.707c0,0.539-0.059,1.002-0.173,1.39
			c-0.114,0.388-0.298,0.709-0.552,0.962c-0.253,0.253-0.584,0.441-0.994,0.563c-0.409,0.123-0.918,0.184-1.529,0.184
			c-0.558,0-1.056-0.078-1.496-0.234c-0.438-0.156-0.776-0.357-1.015-0.605c-0.237-0.247-0.356-0.501-0.356-0.763
			c0-0.197,0.068-0.359,0.203-0.483c0.135-0.125,0.297-0.188,0.486-0.188c0.237,0,0.445,0.105,0.623,0.314
			c0.087,0.108,0.177,0.216,0.27,0.324c0.094,0.109,0.197,0.202,0.309,0.279c0.113,0.076,0.249,0.134,0.407,0.172
			c0.158,0.037,0.341,0.057,0.546,0.057c0.42,0,0.746-0.059,0.978-0.176c0.231-0.116,0.394-0.28,0.487-0.49
			c0.092-0.209,0.146-0.434,0.162-0.673c0.016-0.24,0.027-0.624,0.036-1.155c-0.25,0.349-0.537,0.614-0.864,0.796
			c-0.326,0.183-0.715,0.273-1.166,0.273c-0.542,0-1.016-0.139-1.422-0.416c-0.405-0.277-0.717-0.665-0.936-1.163
			c-0.217-0.499-0.326-1.074-0.326-1.728c0-0.486,0.066-0.927,0.199-1.317c0.133-0.392,0.321-0.723,0.566-0.992
			c0.246-0.27,0.529-0.472,0.849-0.608c0.321-0.136,0.673-0.204,1.057-0.204c0.459,0,0.857,0.088,1.194,0.264
			c0.336,0.177,0.648,0.452,0.938,0.828v-0.22c0-0.281,0.068-0.498,0.207-0.653c0.139-0.153,0.316-0.232,0.535-0.232
			c0.312,0,0.52,0.103,0.623,0.306C202.8,478.774,202.852,479.068,202.852,479.452 M198.156,481.506c0,0.657,0.143,1.154,0.43,1.49
			c0.287,0.337,0.658,0.505,1.113,0.505c0.269,0,0.524-0.072,0.763-0.217c0.24-0.145,0.435-0.362,0.585-0.653
			c0.15-0.291,0.226-0.643,0.226-1.06c0-0.66-0.145-1.175-0.437-1.543c-0.291-0.368-0.674-0.552-1.148-0.552
			c-0.463,0-0.834,0.176-1.113,0.528C198.295,480.356,198.156,480.857,198.156,481.506"/>
		<path style="clip-path:url(#SVGID_15_);fill:#C1C1C1;" d="M205.428,479.161v0.196c0.284-0.376,0.596-0.652,0.935-0.828
			c0.338-0.176,0.728-0.265,1.167-0.265c0.427,0,0.809,0.094,1.145,0.279c0.336,0.187,0.588,0.449,0.754,0.789
			c0.108,0.198,0.176,0.412,0.207,0.642c0.033,0.229,0.049,0.522,0.049,0.879v3.015c0,0.325-0.074,0.571-0.223,0.737
			c-0.148,0.166-0.341,0.249-0.578,0.249c-0.242,0-0.438-0.085-0.589-0.256c-0.15-0.17-0.225-0.413-0.225-0.73v-2.7
			c0-0.534-0.075-0.943-0.224-1.226c-0.148-0.283-0.443-0.425-0.887-0.425c-0.289,0-0.553,0.086-0.79,0.258
			c-0.237,0.173-0.411,0.409-0.522,0.71c-0.078,0.241-0.119,0.692-0.119,1.352v2.03c0,0.329-0.076,0.576-0.228,0.74
			c-0.152,0.164-0.349,0.246-0.591,0.246c-0.233,0-0.426-0.085-0.576-0.256c-0.15-0.17-0.226-0.413-0.226-0.73v-4.683
			c0-0.309,0.067-0.54,0.202-0.692c0.135-0.151,0.318-0.229,0.552-0.229c0.144,0,0.27,0.034,0.387,0.102
			c0.114,0.067,0.206,0.168,0.275,0.302C205.393,478.803,205.428,478.968,205.428,479.161"/>
		<path style="clip-path:url(#SVGID_15_);fill:#C1C1C1;" d="M215.286,481.958h-3.169c0.004,0.368,0.078,0.692,0.223,0.973
			c0.144,0.281,0.336,0.493,0.576,0.636c0.238,0.143,0.502,0.213,0.791,0.213c0.193,0,0.371-0.021,0.532-0.067
			c0.159-0.046,0.315-0.116,0.466-0.214c0.149-0.097,0.289-0.201,0.416-0.311c0.126-0.111,0.29-0.263,0.492-0.452
			c0.083-0.07,0.201-0.107,0.355-0.107c0.167,0,0.302,0.046,0.404,0.137c0.104,0.092,0.154,0.22,0.154,0.386
			c0,0.147-0.058,0.317-0.172,0.514c-0.115,0.195-0.289,0.384-0.52,0.563c-0.232,0.181-0.522,0.329-0.873,0.448
			c-0.35,0.119-0.753,0.179-1.208,0.179c-1.04,0-1.851-0.298-2.428-0.891c-0.578-0.594-0.866-1.399-0.866-2.416
			c0-0.48,0.07-0.924,0.213-1.333c0.143-0.409,0.352-0.761,0.624-1.054c0.272-0.293,0.609-0.517,1.009-0.674
			c0.4-0.156,0.844-0.233,1.33-0.233c0.633,0,1.175,0.133,1.629,0.4c0.453,0.267,0.793,0.612,1.019,1.035
			c0.226,0.424,0.338,0.855,0.338,1.294c0,0.408-0.116,0.672-0.351,0.793C216.039,481.897,215.711,481.958,215.286,481.958
			 M212.117,481.037h2.938c-0.039-0.554-0.188-0.969-0.448-1.243c-0.259-0.275-0.601-0.413-1.023-0.413
			c-0.403,0-0.735,0.14-0.995,0.418C212.328,480.078,212.172,480.491,212.117,481.037"/>
		<path style="clip-path:url(#SVGID_15_);fill:#C1C1C1;" d="M221.893,483.928v-0.16c-0.219,0.249-0.432,0.452-0.645,0.608
			c-0.212,0.156-0.44,0.275-0.688,0.356c-0.247,0.082-0.518,0.122-0.811,0.122c-0.389,0-0.747-0.082-1.077-0.246
			c-0.331-0.164-0.617-0.399-0.858-0.703c-0.241-0.306-0.424-0.663-0.549-1.075c-0.125-0.412-0.188-0.857-0.188-1.335
			c0-1.014,0.248-1.804,0.742-2.37c0.494-0.565,1.146-0.848,1.953-0.848c0.467,0,0.861,0.081,1.182,0.239
			c0.32,0.161,0.633,0.408,0.938,0.739v-2.392c0-0.333,0.066-0.584,0.199-0.754c0.132-0.171,0.321-0.255,0.567-0.255
			c0.245,0,0.434,0.078,0.565,0.234c0.133,0.156,0.2,0.386,0.2,0.691v7.146c0,0.31-0.071,0.541-0.214,0.695
			c-0.143,0.153-0.326,0.232-0.552,0.232c-0.222,0-0.405-0.08-0.55-0.24C221.965,484.453,221.893,484.225,221.893,483.928
			 M218.705,481.548c0,0.439,0.067,0.813,0.205,1.122c0.137,0.309,0.323,0.541,0.561,0.697c0.236,0.156,0.496,0.235,0.776,0.235
			c0.285,0,0.546-0.075,0.781-0.224c0.235-0.147,0.424-0.376,0.563-0.682c0.141-0.307,0.211-0.691,0.211-1.149
			c0-0.432-0.07-0.803-0.211-1.114c-0.14-0.31-0.33-0.547-0.57-0.712c-0.239-0.163-0.501-0.245-0.786-0.245
			c-0.296,0-0.562,0.084-0.795,0.252c-0.233,0.168-0.415,0.409-0.544,0.724C218.77,480.768,218.705,481.132,218.705,481.548"/>
		<path style="clip-path:url(#SVGID_15_);fill:#C1C1C1;" d="M228.516,476.781v2.475c0.306-0.316,0.615-0.559,0.934-0.727
			c0.315-0.168,0.707-0.252,1.175-0.252c0.538,0,1.01,0.127,1.416,0.382c0.405,0.256,0.72,0.626,0.943,1.11
			c0.224,0.484,0.336,1.06,0.336,1.726c0,0.49-0.063,0.94-0.186,1.35c-0.125,0.409-0.307,0.765-0.544,1.065
			c-0.237,0.301-0.525,0.534-0.863,0.698c-0.339,0.164-0.712,0.246-1.12,0.246c-0.248,0-0.484-0.029-0.703-0.09
			c-0.219-0.059-0.407-0.137-0.561-0.234c-0.154-0.096-0.285-0.196-0.396-0.3c-0.108-0.102-0.252-0.257-0.431-0.463v0.16
			c0,0.305-0.072,0.536-0.219,0.692c-0.146,0.156-0.332,0.234-0.559,0.234c-0.229,0-0.412-0.078-0.549-0.234
			c-0.137-0.156-0.205-0.388-0.205-0.692v-7.076c0-0.328,0.066-0.576,0.199-0.744c0.133-0.168,0.318-0.252,0.555-0.252
			c0.25,0,0.441,0.08,0.576,0.239C228.449,476.256,228.516,476.483,228.516,476.781 M228.594,481.596
			c0,0.645,0.146,1.14,0.442,1.486c0.294,0.347,0.681,0.521,1.16,0.521c0.407,0,0.759-0.177,1.054-0.532
			c0.295-0.355,0.442-0.861,0.442-1.522c0-0.427-0.062-0.796-0.185-1.105c-0.122-0.309-0.297-0.547-0.521-0.715
			c-0.226-0.168-0.49-0.252-0.79-0.252c-0.308,0-0.584,0.084-0.825,0.252c-0.241,0.168-0.432,0.411-0.57,0.73
			C228.662,480.776,228.594,481.156,228.594,481.596"/>
		<path style="clip-path:url(#SVGID_15_);fill:#C1C1C1;" d="M235.42,485.057l0.148-0.363l-1.994-5.021
			c-0.123-0.288-0.186-0.499-0.186-0.63c0-0.138,0.037-0.267,0.107-0.385c0.072-0.119,0.17-0.214,0.294-0.285
			c0.125-0.072,0.255-0.108,0.39-0.108c0.232,0,0.408,0.074,0.527,0.223c0.12,0.148,0.225,0.361,0.314,0.638l1.372,3.989l1.3-3.71
			c0.104-0.3,0.196-0.536,0.279-0.706c0.083-0.171,0.17-0.285,0.264-0.344c0.094-0.06,0.225-0.09,0.395-0.09
			c0.123,0,0.24,0.032,0.354,0.099c0.113,0.065,0.199,0.153,0.262,0.264c0.061,0.111,0.092,0.227,0.092,0.35
			c-0.016,0.075-0.041,0.183-0.077,0.321c-0.036,0.138-0.079,0.28-0.13,0.421l-2.113,5.533c-0.184,0.486-0.361,0.868-0.535,1.145
			c-0.174,0.276-0.404,0.49-0.691,0.638c-0.287,0.149-0.674,0.223-1.161,0.223c-0.474,0-0.831-0.051-1.067-0.153
			c-0.238-0.103-0.356-0.291-0.356-0.564c0-0.186,0.056-0.33,0.169-0.43c0.112-0.102,0.28-0.152,0.502-0.152
			c0.086,0,0.172,0.012,0.255,0.036c0.103,0.023,0.192,0.035,0.267,0.035c0.186,0,0.332-0.027,0.439-0.083
			c0.107-0.056,0.203-0.151,0.289-0.288C235.211,485.522,235.31,485.321,235.42,485.057"/>
		<path style="clip-path:url(#SVGID_15_);fill:#C1C1C1;" d="M258.896,478.405h0.387v-0.486c0-0.509,0.062-0.911,0.191-1.211
			c0.128-0.3,0.348-0.517,0.654-0.653c0.307-0.136,0.727-0.204,1.26-0.204c0.951,0,1.422,0.23,1.422,0.696
			c0,0.149-0.05,0.278-0.15,0.385c-0.098,0.105-0.215,0.16-0.349,0.16c-0.064,0-0.174-0.012-0.33-0.037
			c-0.148-0.021-0.283-0.035-0.39-0.035c-0.292,0-0.479,0.088-0.565,0.26c-0.08,0.172-0.122,0.418-0.122,0.74v0.386h0.396
			c0.619,0,0.926,0.185,0.926,0.56c0,0.262-0.079,0.432-0.245,0.503c-0.163,0.071-0.39,0.106-0.681,0.106h-0.396v4.295
			c0,0.319-0.075,0.562-0.23,0.729c-0.15,0.171-0.347,0.254-0.59,0.254c-0.23,0-0.419-0.083-0.573-0.254
			c-0.153-0.167-0.227-0.41-0.227-0.729v-4.295h-0.446c-0.242,0-0.427-0.052-0.558-0.163c-0.131-0.106-0.197-0.25-0.197-0.424
			C258.082,478.598,258.353,478.405,258.896,478.405"/>
		<path style="clip-path:url(#SVGID_15_);fill:#C1C1C1;" d="M264.202,482.514v1.355c0,0.327-0.083,0.574-0.233,0.737
			c-0.154,0.166-0.35,0.246-0.586,0.246c-0.238,0-0.43-0.081-0.579-0.25c-0.148-0.165-0.226-0.409-0.226-0.733v-4.515
			c0-0.728,0.263-1.093,0.788-1.093c0.272,0,0.464,0.084,0.584,0.256c0.118,0.17,0.185,0.42,0.198,0.755
			c0.192-0.335,0.39-0.585,0.592-0.755c0.208-0.172,0.477-0.256,0.819-0.256c0.343,0,0.67,0.084,0.991,0.256
			c0.322,0.17,0.481,0.397,0.481,0.678c0,0.196-0.069,0.363-0.204,0.488c-0.138,0.13-0.284,0.194-0.441,0.194
			c-0.061,0-0.207-0.039-0.432-0.111c-0.228-0.071-0.432-0.109-0.603-0.109c-0.237,0-0.433,0.065-0.583,0.188
			c-0.151,0.127-0.268,0.31-0.352,0.554c-0.081,0.246-0.138,0.541-0.171,0.877C264.217,481.615,264.202,482.027,264.202,482.514"/>
		<path style="clip-path:url(#SVGID_15_);fill:#C1C1C1;" d="M271.652,481.956h-3.171c0.006,0.368,0.077,0.694,0.222,0.975
			c0.147,0.278,0.338,0.491,0.578,0.635c0.24,0.143,0.502,0.213,0.793,0.213c0.193,0,0.371-0.02,0.53-0.069
			c0.159-0.044,0.315-0.116,0.467-0.213c0.151-0.096,0.287-0.199,0.415-0.312c0.126-0.109,0.291-0.261,0.494-0.45
			c0.083-0.07,0.202-0.108,0.354-0.108c0.168,0,0.301,0.047,0.405,0.139c0.104,0.092,0.152,0.219,0.152,0.386
			c0,0.147-0.055,0.317-0.167,0.512c-0.117,0.198-0.29,0.386-0.522,0.566c-0.234,0.179-0.524,0.33-0.873,0.446
			c-0.351,0.119-0.754,0.179-1.208,0.179c-1.044,0-1.853-0.295-2.429-0.889c-0.578-0.595-0.869-1.401-0.869-2.417
			c0-0.479,0.072-0.924,0.216-1.334c0.142-0.412,0.35-0.761,0.625-1.055c0.272-0.295,0.605-0.518,1.008-0.674
			c0.398-0.156,0.841-0.234,1.33-0.234c0.631,0,1.175,0.134,1.629,0.403c0.452,0.265,0.796,0.61,1.019,1.034
			c0.225,0.426,0.339,0.855,0.339,1.297c0,0.404-0.119,0.668-0.352,0.791C272.404,481.896,272.077,481.956,271.652,481.956
			 M268.481,481.034h2.939c-0.039-0.553-0.186-0.968-0.446-1.241c-0.262-0.276-0.6-0.412-1.024-0.412
			c-0.404,0-0.736,0.137-0.995,0.418C268.695,480.077,268.536,480.489,268.481,481.034"/>
		<path style="clip-path:url(#SVGID_15_);fill:#C1C1C1;" d="M278.395,481.956h-3.17c0.004,0.368,0.078,0.694,0.222,0.975
			c0.145,0.278,0.336,0.491,0.575,0.635c0.239,0.143,0.503,0.213,0.795,0.213c0.192,0,0.37-0.02,0.528-0.069
			c0.161-0.044,0.315-0.116,0.469-0.213c0.151-0.096,0.287-0.199,0.415-0.312c0.124-0.109,0.289-0.261,0.492-0.45
			c0.084-0.07,0.204-0.108,0.354-0.108c0.169,0,0.303,0.047,0.406,0.139c0.105,0.092,0.151,0.219,0.151,0.386
			c0,0.147-0.055,0.317-0.172,0.512c-0.109,0.198-0.284,0.386-0.519,0.566c-0.231,0.179-0.525,0.33-0.872,0.446
			c-0.349,0.119-0.755,0.179-1.209,0.179c-1.042,0-1.85-0.295-2.43-0.889c-0.576-0.595-0.867-1.401-0.867-2.417
			c0-0.479,0.072-0.924,0.217-1.334c0.143-0.412,0.35-0.761,0.623-1.055c0.271-0.295,0.607-0.518,1.009-0.674
			c0.398-0.156,0.844-0.234,1.331-0.234c0.63,0,1.174,0.134,1.633,0.403c0.45,0.265,0.791,0.61,1.013,1.034
			c0.225,0.426,0.341,0.855,0.341,1.297c0,0.404-0.12,0.668-0.352,0.791C279.145,481.896,278.817,481.956,278.395,481.956
			 M275.225,481.034h2.938c-0.039-0.553-0.189-0.968-0.446-1.241c-0.264-0.276-0.602-0.412-1.026-0.412
			c-0.404,0-0.734,0.137-0.996,0.418C275.435,480.077,275.277,480.489,275.225,481.034"/>
		<path style="clip-path:url(#SVGID_15_);fill:#C1C1C1;" d="M281.944,479.174v0.193c0.304-0.375,0.622-0.65,0.953-0.827
			c0.324-0.178,0.699-0.267,1.114-0.267c0.497,0,0.96,0.13,1.38,0.386c0.419,0.259,0.749,0.635,0.992,1.129
			c0.243,0.497,0.366,1.081,0.366,1.759c0,0.497-0.07,0.957-0.21,1.375c-0.14,0.418-0.336,0.768-0.58,1.051
			c-0.246,0.281-0.535,0.501-0.869,0.653c-0.339,0.15-0.694,0.227-1.079,0.227c-0.462,0-0.853-0.093-1.166-0.279
			c-0.314-0.183-0.614-0.458-0.901-0.815v2.433c0,0.71-0.26,1.068-0.776,1.068c-0.307,0-0.506-0.091-0.608-0.274
			c-0.094-0.186-0.146-0.452-0.146-0.807v-6.996c0-0.31,0.066-0.537,0.2-0.692c0.135-0.149,0.32-0.228,0.554-0.228
			c0.229,0,0.416,0.078,0.559,0.234C281.874,478.654,281.944,478.877,281.944,479.174 M285.122,481.528
			c0-0.427-0.066-0.796-0.196-1.102c-0.13-0.308-0.312-0.542-0.542-0.705c-0.229-0.164-0.488-0.248-0.77-0.248
			c-0.446,0-0.824,0.178-1.131,0.527c-0.308,0.354-0.462,0.872-0.462,1.559c0,0.642,0.152,1.146,0.46,1.504
			c0.305,0.358,0.679,0.536,1.133,0.536c0.268,0,0.518-0.078,0.748-0.232c0.231-0.158,0.415-0.391,0.553-0.703
			C285.053,482.35,285.122,481.971,285.122,481.528"/>
		<path style="clip-path:url(#SVGID_15_);fill:#C1C1C1;" d="M288.383,477.508c-0.227,0-0.418-0.072-0.577-0.21
			c-0.163-0.139-0.243-0.333-0.243-0.585c0-0.23,0.082-0.419,0.249-0.569c0.163-0.146,0.354-0.222,0.571-0.222
			c0.212,0,0.398,0.066,0.558,0.199c0.162,0.137,0.244,0.334,0.244,0.592c0,0.249-0.079,0.444-0.236,0.584
			C288.79,477.435,288.602,477.508,288.383,477.508 M289.185,479.182v4.688c0,0.322-0.077,0.567-0.23,0.732
			c-0.156,0.169-0.352,0.25-0.589,0.25c-0.238,0-0.428-0.083-0.58-0.254c-0.146-0.173-0.223-0.415-0.223-0.729v-4.643
			c0-0.318,0.076-0.559,0.223-0.721c0.152-0.166,0.342-0.245,0.58-0.245c0.237,0,0.433,0.079,0.589,0.245
			C289.107,478.669,289.185,478.896,289.185,479.182"/>
		<path style="clip-path:url(#SVGID_15_);fill:#C1C1C1;" d="M294.41,484.113l-1.428-2.354l-0.881,0.83v1.291
			c0,0.312-0.082,0.551-0.248,0.718c-0.16,0.171-0.353,0.254-0.565,0.254c-0.25,0-0.447-0.081-0.589-0.25
			c-0.141-0.164-0.214-0.41-0.214-0.733v-6.915c0-0.358,0.071-0.632,0.207-0.82c0.139-0.19,0.341-0.283,0.596-0.283
			c0.249,0,0.445,0.086,0.593,0.257c0.146,0.17,0.221,0.422,0.221,0.751v3.934l1.823-1.914c0.227-0.234,0.395-0.4,0.517-0.486
			c0.118-0.087,0.262-0.13,0.431-0.13c0.204,0,0.371,0.065,0.51,0.193c0.132,0.128,0.2,0.291,0.2,0.482
			c0,0.237-0.222,0.556-0.659,0.951l-0.861,0.789l1.662,2.614c0.122,0.196,0.212,0.34,0.265,0.441c0.053,0.1,0.082,0.2,0.082,0.289
			c0,0.258-0.071,0.459-0.213,0.609c-0.141,0.147-0.327,0.221-0.554,0.221c-0.198,0-0.352-0.051-0.459-0.159
			C294.738,484.585,294.591,484.391,294.41,484.113"/>
		<path style="clip-path:url(#SVGID_15_);fill:#C1C1C1;" d="M297.932,484.853c-0.245,0-0.455-0.078-0.634-0.237
			c-0.178-0.156-0.268-0.379-0.268-0.666c0-0.24,0.086-0.449,0.257-0.621c0.171-0.175,0.379-0.263,0.63-0.263
			c0.248,0,0.46,0.088,0.639,0.258c0.174,0.172,0.264,0.383,0.264,0.626c0,0.283-0.09,0.505-0.264,0.662
			C298.377,484.774,298.169,484.853,297.932,484.853"/>
		<path style="clip-path:url(#SVGID_15_);fill:#C1C1C1;" d="M305.993,482.847c0,0.2-0.061,0.417-0.182,0.646
			c-0.119,0.231-0.305,0.448-0.554,0.656c-0.246,0.207-0.557,0.376-0.935,0.502c-0.375,0.126-0.8,0.191-1.268,0.191
			c-1.005,0-1.786-0.293-2.35-0.876c-0.559-0.584-0.841-1.367-0.841-2.35c0-0.667,0.128-1.254,0.388-1.765
			c0.255-0.509,0.627-0.905,1.113-1.184c0.486-0.28,1.072-0.419,1.746-0.419c0.421,0,0.806,0.061,1.157,0.185
			c0.352,0.122,0.646,0.282,0.891,0.474c0.242,0.197,0.429,0.402,0.557,0.621c0.13,0.219,0.191,0.425,0.191,0.616
			c0,0.192-0.07,0.357-0.213,0.492c-0.148,0.135-0.322,0.203-0.524,0.203c-0.137,0-0.249-0.036-0.338-0.104
			c-0.091-0.07-0.191-0.181-0.3-0.338c-0.198-0.299-0.403-0.526-0.623-0.675c-0.214-0.152-0.487-0.227-0.82-0.227
			c-0.476,0-0.864,0.186-1.159,0.56c-0.292,0.373-0.439,0.888-0.439,1.534c0,0.305,0.038,0.587,0.114,0.842
			c0.073,0.255,0.182,0.473,0.324,0.653c0.145,0.179,0.315,0.315,0.517,0.408c0.202,0.097,0.426,0.142,0.665,0.142
			c0.325,0,0.603-0.075,0.836-0.226c0.234-0.15,0.438-0.38,0.615-0.688c0.1-0.183,0.205-0.324,0.319-0.428
			c0.113-0.102,0.256-0.155,0.422-0.155c0.198,0,0.362,0.076,0.491,0.226C305.927,482.516,305.993,482.678,305.993,482.847"/>
		<path style="clip-path:url(#SVGID_15_);fill:#C1C1C1;" d="M312.987,481.559c0,0.481-0.076,0.928-0.223,1.337
			c-0.154,0.407-0.37,0.759-0.656,1.049c-0.284,0.293-0.626,0.518-1.02,0.676c-0.399,0.154-0.843,0.234-1.336,0.234
			c-0.491,0-0.934-0.08-1.326-0.239c-0.389-0.156-0.732-0.385-1.016-0.677c-0.288-0.298-0.506-0.647-0.657-1.048
			c-0.145-0.402-0.22-0.847-0.22-1.332c0-0.491,0.077-0.941,0.225-1.349c0.151-0.409,0.368-0.758,0.649-1.046
			c0.281-0.288,0.62-0.51,1.019-0.669c0.402-0.155,0.843-0.233,1.326-0.233c0.49,0,0.937,0.078,1.336,0.238
			c0.398,0.157,0.739,0.385,1.027,0.676c0.286,0.296,0.502,0.643,0.649,1.044C312.912,480.627,312.987,481.07,312.987,481.559
			 M311.359,481.559c0-0.661-0.146-1.176-0.436-1.543c-0.289-0.371-0.681-0.555-1.171-0.555c-0.318,0-0.597,0.082-0.84,0.246
			c-0.242,0.164-0.426,0.406-0.556,0.728c-0.131,0.321-0.197,0.696-0.197,1.124c0,0.425,0.063,0.793,0.193,1.108
			c0.13,0.319,0.314,0.561,0.554,0.73c0.241,0.166,0.521,0.252,0.846,0.252c0.49,0,0.882-0.185,1.171-0.557
			C311.214,482.723,311.359,482.209,311.359,481.559"/>
		<path style="clip-path:url(#SVGID_15_);fill:#C1C1C1;" d="M319.17,481.678v2.154c0,0.342-0.075,0.594-0.23,0.767
			c-0.156,0.171-0.357,0.256-0.611,0.256c-0.245,0-0.446-0.085-0.595-0.256c-0.154-0.173-0.232-0.425-0.232-0.767v-2.582
			c0-0.408-0.013-0.727-0.039-0.953c-0.029-0.221-0.105-0.409-0.227-0.552c-0.123-0.146-0.317-0.22-0.581-0.22
			c-0.532,0-0.88,0.182-1.048,0.551c-0.168,0.36-0.254,0.883-0.254,1.566v2.189c0,0.336-0.077,0.591-0.227,0.765
			c-0.155,0.171-0.354,0.258-0.603,0.258c-0.247,0-0.448-0.087-0.604-0.258c-0.157-0.174-0.234-0.429-0.234-0.765v-4.637
			c0-0.307,0.068-0.538,0.209-0.695c0.143-0.16,0.328-0.238,0.556-0.238c0.224,0,0.407,0.077,0.558,0.223
			c0.147,0.148,0.221,0.353,0.221,0.615v0.152c0.284-0.334,0.585-0.581,0.904-0.737c0.322-0.163,0.676-0.241,1.07-0.241
			c0.406,0,0.757,0.082,1.048,0.243c0.294,0.163,0.534,0.41,0.726,0.735c0.274-0.33,0.568-0.576,0.881-0.737
			c0.312-0.161,0.658-0.241,1.039-0.241c0.441,0,0.825,0.089,1.146,0.262c0.318,0.174,0.558,0.425,0.717,0.747
			c0.139,0.296,0.206,0.756,0.206,1.386v3.164c0,0.342-0.076,0.594-0.229,0.767c-0.154,0.171-0.359,0.256-0.611,0.256
			c-0.247,0-0.446-0.087-0.603-0.258c-0.156-0.174-0.234-0.429-0.234-0.765v-2.727c0-0.349-0.016-0.626-0.044-0.836
			c-0.029-0.21-0.11-0.388-0.239-0.529c-0.132-0.142-0.332-0.215-0.596-0.215c-0.213,0-0.417,0.066-0.608,0.192
			c-0.192,0.124-0.343,0.298-0.451,0.508C319.231,480.5,319.17,480.984,319.17,481.678"/>
		<polyline style="clip-path:url(#SVGID_15_);fill:#C1C1C1;" points="243.729,481.166 243.729,481.155 243.729,481.166 		"/>
		<path style="clip-path:url(#SVGID_15_);fill:#C1C1C1;" d="M243.811,481.685h0.002c-0.031-0.147-0.055-0.294-0.074-0.439
			C243.758,481.392,243.781,481.539,243.811,481.685"/>
		<path style="clip-path:url(#SVGID_15_);fill:#C1C1C1;" d="M244.348,483.189c-0.004-0.006-0.008-0.013-0.011-0.021
			C244.34,483.176,244.344,483.183,244.348,483.189"/>
		<path style="clip-path:url(#SVGID_15_);fill:#C1C1C1;" d="M244.297,483.088c-0.014-0.027-0.028-0.056-0.041-0.083
			C244.269,483.034,244.283,483.06,244.297,483.088"/>
		<path style="clip-path:url(#SVGID_15_);fill:#C1C1C1;" d="M243.962,482.264c0.079,0.25,0.175,0.492,0.286,0.724
			c-0.113-0.235-0.207-0.479-0.284-0.724H243.962z"/>
		<path style="clip-path:url(#SVGID_15_);fill:#C1C1C1;" d="M250.002,474.956c0.314,0,0.545,0.025,0.811,0.069l0.074-0.477
			c0,0-0.731-0.225-1.693-0.146l-0.076-0.26c0.299-0.062,0.523-0.328,0.523-0.646c0-0.364-0.296-0.659-0.66-0.659
			c-0.365,0-0.66,0.295-0.66,0.659c0,0.317,0.225,0.583,0.523,0.646l0.082,0.29c-1.021,0.14-1.834,0.539-1.834,0.539l0.145,0.44
			c0.617-0.206,1.154-0.331,1.641-0.384C249.352,474.978,249.711,474.956,250.002,474.956"/>
		<path style="clip-path:url(#SVGID_15_);fill:#C1C1C1;" d="M244.336,477.367l0.003-0.005c0.024-0.03,0.048-0.061,0.071-0.089
			l-0.195-0.141l-0.306-0.223c-0.017,0.023-0.497,0.465-0.876,1.279c-0.016-0.025-0.035-0.051-0.056-0.074
			c-0.113-0.124-0.272-0.188-0.474-0.184h-0.01c-0.125,0-0.211-0.042-0.268-0.092c0.057-0.071,0.091-0.16,0.091-0.259
			c0-0.229-0.189-0.418-0.419-0.418c-0.23,0-0.418,0.189-0.418,0.418c0,0.231,0.188,0.418,0.418,0.418
			c0.036,0,0.07-0.006,0.105-0.013c0.103,0.114,0.266,0.214,0.505,0.209c0.123-0.001,0.213,0.03,0.273,0.097
			c0.069,0.076,0.093,0.186,0.1,0.268c0,0.001,0,0.003-0.002,0.003c-0.272,0.743-0.194,1.669-0.194,1.669l0.661,0.026
			c0.014-0.337,0.062-0.927,0.232-1.395C243.906,477.958,244.318,477.392,244.336,477.367"/>
		<path style="clip-path:url(#SVGID_15_);fill:#C1C1C1;" d="M255.752,475.509c-0.23,0-0.418,0.187-0.418,0.418
			c0,0.036,0.006,0.07,0.015,0.103c-0.114,0.104-0.214,0.268-0.21,0.508c0.001,0.122-0.03,0.212-0.098,0.271
			c-0.053,0.048-0.118,0.072-0.185,0.088c-0.492-0.689-1.098-1.109-1.098-1.109l-0.474,0.509c0.358,0.326,0.725,0.734,1.08,1.244
			c0.246,0.353,0.499,0.806,0.711,1.259l0.639-0.304c0,0-0.291-0.723-0.703-1.37c0.072-0.024,0.144-0.064,0.207-0.119
			c0.125-0.113,0.186-0.273,0.183-0.475c-0.001-0.13,0.042-0.218,0.094-0.275c0.07,0.054,0.16,0.089,0.257,0.089
			c0.232,0,0.419-0.188,0.419-0.418C256.171,475.695,255.984,475.509,255.752,475.509"/>
		<path style="clip-path:url(#SVGID_15_);fill:#C1C1C1;" d="M254.092,481.26c-0.881,0.429-2.33,0.996-4.238,1.262
			c-0.749,0.104-1.475,0.143-2.143,0.143c-0.869,0-1.638-0.064-2.227-0.139c-0.673-0.085-1.198-0.189-1.52-0.261
			c0.077,0.244,0.171,0.487,0.284,0.723c0.002,0.007,0.004,0.013,0.008,0.018c0.014,0.027,0.026,0.056,0.041,0.083
			c0.013,0.028,0.026,0.055,0.04,0.08c0.004,0.007,0.007,0.015,0.011,0.021c0.189,0.356,0.416,0.684,0.675,0.968
			c0.9,0.984,1.817,1.141,1.826,1.142l0.015,0.002l0.014,0.005c0.008,0.003,0.82,0.265,2.057,0.265c1.215,0,2.409-0.245,3.546-0.729
			c0.843-0.431,1.64-1.085,2.034-1.669c0.305-0.451,0.525-0.934,0.656-1.434c0.069-0.266,0.124-0.692,0.092-1.141
			C255.014,480.764,254.622,481.002,254.092,481.26"/>
		<path style="clip-path:url(#SVGID_15_);fill:#C1C1C1;" d="M244.618,477.576c-0.025,0.037-0.407,0.578-0.71,1.408
			c-0.226,0.622-0.216,1.527-0.216,1.537v0.002c0,0.213,0.012,0.423,0.036,0.632c0,0.005,0,0.008,0.001,0.011
			c0.003,0.027,0.007,0.053,0.009,0.08c0.02,0.145,0.043,0.291,0.074,0.438c0.438,0.112,3.049,0.721,5.969,0.314
			c1.829-0.254,3.218-0.795,4.061-1.204c0.7-0.34,1.151-0.647,1.324-0.773c-0.173-0.643-0.651-1.65-1.089-2.279
			c-1.254-1.791-2.605-2.251-3.298-2.364c-0.265-0.044-0.477-0.068-0.778-0.068c-0.279,0-0.626,0.022-1.089,0.071
			c-0.464,0.048-0.982,0.17-1.583,0.372c-0.842,0.281-1.604,0.725-2.203,1.28l-0.021,0.019
			C245.017,477.133,244.831,477.305,244.618,477.576 M252.287,477.159c0.601,0,1.09,0.488,1.09,1.09c0,0.601-0.489,1.09-1.09,1.09
			c-0.602,0-1.089-0.489-1.089-1.09C251.198,477.647,251.686,477.159,252.287,477.159 M247.136,477.116
			c0.974,0,1.761,0.788,1.761,1.761c0,0.973-0.787,1.759-1.761,1.759c-0.972,0-1.761-0.786-1.761-1.759
			C245.375,477.904,246.164,477.116,247.136,477.116"/>
	</g>
</g>
</svg>
